<?xml version="1.0" encoding="UTF-8" standalone="no"?>
<!-- Created with Inkscape (http://www.inkscape.org/) -->

<svg
   width="335.8255mm"
   height="158.70738mm"
   viewBox="0 0 335.8255 158.70738"
   version="1.1"
   id="svg5"
   xml:space="preserve"
   inkscape:version="1.2.1 (9c6d41e4, 2022-07-14)"
   sodipodi:docname="Fond.svg"
   xmlns:inkscape="http://www.inkscape.org/namespaces/inkscape"
   xmlns:sodipodi="http://sodipodi.sourceforge.net/DTD/sodipodi-0.dtd"
   xmlns:xlink="http://www.w3.org/1999/xlink"
   xmlns="http://www.w3.org/2000/svg"
   xmlns:svg="http://www.w3.org/2000/svg"><sodipodi:namedview
     id="namedview7"
     pagecolor="#ffffff"
     bordercolor="#666666"
     borderopacity="1.0"
     inkscape:showpageshadow="2"
     inkscape:pageopacity="0.0"
     inkscape:pagecheckerboard="0"
     inkscape:deskcolor="#d1d1d1"
     inkscape:document-units="mm"
     showgrid="false"
     inkscape:zoom="0.55370687"
     inkscape:cx="790.12926"
     inkscape:cy="296.1856"
     inkscape:window-width="1629"
     inkscape:window-height="964"
     inkscape:window-x="99"
     inkscape:window-y="23"
     inkscape:window-maximized="0"
     inkscape:current-layer="layer1" /><defs
     id="defs2"><linearGradient
       inkscape:collect="always"
       id="linearGradient1281"><stop
         style="stop-color:#e5efe5;stop-opacity:1;"
         offset="0"
         id="stop1277" /><stop
         style="stop-color:#37c837;stop-opacity:1;"
         offset="1"
         id="stop1279" /></linearGradient><linearGradient
       inkscape:collect="always"
       id="linearGradient1217"><stop
         style="stop-color:#e2edff;stop-opacity:1;"
         offset="0"
         id="stop1213" /><stop
         style="stop-color:#2a7fff;stop-opacity:1;"
         offset="1"
         id="stop1215" /></linearGradient><linearGradient
       inkscape:collect="always"
       id="linearGradient1145"><stop
         style="stop-color:#ffe0e0;stop-opacity:1;"
         offset="0"
         id="stop1141" /><stop
         style="stop-color:#ff0000;stop-opacity:1;"
         offset="1"
         id="stop1143" /></linearGradient><linearGradient
       inkscape:collect="always"
       id="linearGradient1081"><stop
         style="stop-color:#ffe2ff;stop-opacity:1;"
         offset="0"
         id="stop1077" /><stop
         style="stop-color:#ff00ff;stop-opacity:1;"
         offset="1"
         id="stop1079" /></linearGradient><linearGradient
       inkscape:collect="always"
       id="linearGradient1069"><stop
         style="stop-color:#fff8da;stop-opacity:1;"
         offset="0"
         id="stop1065" /><stop
         style="stop-color:#ffd42a;stop-opacity:1;"
         offset="1"
         id="stop1067" /></linearGradient><radialGradient
       inkscape:collect="always"
       xlink:href="#linearGradient1069"
       id="radialGradient1071"
       cx="260.20255"
       cy="36.108856"
       fx="260.20255"
       fy="36.108856"
       r="33.532074"
       gradientTransform="matrix(1.0049818,0,0,1.0163619,-1.1965596,-0.68973054)"
       gradientUnits="userSpaceOnUse" /><radialGradient
       inkscape:collect="always"
       xlink:href="#linearGradient1081"
       id="radialGradient1083"
       cx="348.77304"
       cy="43.02562"
       fx="348.77304"
       fy="43.02562"
       r="29.491419"
       gradientTransform="matrix(1,0,0,0.99053652,0,0.54641187)"
       gradientUnits="userSpaceOnUse" /><radialGradient
       inkscape:collect="always"
       xlink:href="#linearGradient1145"
       id="radialGradient1147"
       cx="315.24283"
       cy="356.36035"
       fx="315.24283"
       fy="356.36035"
       r="14.522199"
       gradientTransform="matrix(1,0,0,1.0044213,113.52901,-233.36396)"
       gradientUnits="userSpaceOnUse" /><radialGradient
       inkscape:collect="always"
       xlink:href="#linearGradient1217"
       id="radialGradient1219"
       cx="354.57083"
       cy="280.25449"
       fx="354.57083"
       fy="280.25449"
       r="14.860835"
       gradientTransform="matrix(1,0,0,0.9786635,22.936324,-128.38648)"
       gradientUnits="userSpaceOnUse" /><radialGradient
       inkscape:collect="always"
       xlink:href="#linearGradient1281"
       id="radialGradient1283"
       cx="610.37207"
       cy="243.94269"
       fx="610.37207"
       fy="243.94269"
       r="35.077969"
       gradientTransform="matrix(1,0,0,1.0118651,0,-3.0528733)"
       gradientUnits="userSpaceOnUse" /></defs><g
     inkscape:label="Calque 1"
     inkscape:groupmode="layer"
     id="layer1"
     transform="translate(-2.0428817,-80.465424)"><g
       id="g2025"
       transform="translate(-274.2802,59.25217)"
       style="opacity:0.5"><circle
         style="fill:#ffffff;stroke:none;stroke-width:7.99999;stroke-linecap:round;stroke-linejoin:round"
         id="path1203"
         cx="373.88"
         cy="152.93866"
         r="14.842907" /><path
         style="fill:url(#radialGradient1219);fill-opacity:1;stroke-width:0.172415"
         d="m 368.13649,166.64743 c -1.87404,-0.78347 -3.60532,-2.00441 -5.11328,-3.60604 l -1.26755,-1.34627 -0.005,-1.57194 c -0.008,-2.71326 -0.87005,-5.96284 -2.10484,-7.93858 -0.46619,-0.74594 -0.52182,-0.96074 -0.43702,-1.68735 0.14609,-1.25168 1.00635,-3.6208 1.81844,-5.00787 0.657,-1.1222 2.78592,-3.63746 3.07876,-3.63746 0.0669,0 0.22066,0.18801 0.34186,0.41779 0.12118,0.22979 0.61558,0.63679 1.09865,0.90446 1.74929,0.96928 5.26527,0.72682 7.90176,-0.5449 1.58929,-0.7666 3.09921,-2.32496 3.26362,-3.36832 0.0622,-0.39415 0.16182,-0.74729 0.22157,-0.78477 0.0597,-0.0374 0.77495,0.14931 1.58934,0.41506 2.3783,0.77609 4.47305,2.10914 6.2628,3.9855 0.80132,0.84011 2.26495,2.92912 2.26198,3.22848 -10e-4,0.0966 -0.28978,0.29851 -0.64184,0.44882 -0.80625,0.34423 -1.47468,1.31234 -2.03504,2.9474 -0.79441,2.318 -0.49528,6.08207 0.64393,8.10253 0.49407,0.87627 1.50907,1.78959 1.98884,1.78959 0.35223,0 0.2617,0.23381 -0.61333,1.58425 -1.42945,2.20605 -3.49352,4.07015 -5.84083,5.27494 l -0.9374,0.48112 -1.66466,-0.22357 c -1.95909,-0.26311 -5.07139,-0.13731 -6.47328,0.26166 -1.71651,0.48852 -1.88635,0.48218 -3.33758,-0.12453 z m 6.29975,-3.17095 c 2.01928,-0.5337 3.38522,-1.48882 4.68303,-3.27453 0.96611,-1.32929 1.42741,-2.85113 1.42197,-4.69106 -0.006,-2.08104 -0.34667,-3.27527 -1.46808,-5.14867 -0.40836,-0.6822 -0.23835,-0.40199 -0.39564,-0.57145 -0.54673,-0.58905 -1.19455,-1.08447 -1.87165,-1.51189 -0.49016,-0.30941 -0.56239,-0.36387 -1.56636,-0.74956 -1.40706,-0.54046 -4.11878,-0.52622 -5.70638,0.0299 -4.84686,1.69802 -6.88605,7.57324 -4.20272,12.1087 1.02496,1.7324 3.29069,3.41818 5.20227,3.87062 1.06172,0.25132 2.82377,0.22326 3.90354,-0.0621 z m -4.56253,-3.17242 c -0.0441,-0.0723 -0.13543,-0.43063 -0.203,-0.79611 l -0.12286,-0.66454 -1.59604,0.12143 -1.59605,0.12142 -0.10808,-0.49765 c -0.0594,-0.2737 -0.13909,-0.59888 -0.17698,-0.72261 -0.0642,-0.20946 1.34729,-3.623 2.24884,-5.4388 0.34031,-0.68544 0.48898,-0.81579 1.03257,-0.90531 0.34925,-0.0574 0.68985,-0.0702 0.75687,-0.0281 0.0671,0.0421 0.17178,0.48849 0.23278,0.99214 0.061,0.50364 0.23648,1.71681 0.38994,2.69593 l 0.27903,1.78021 h 0.57399 c 0.59811,0 0.58836,-0.0176 0.64529,1.16452 0.009,0.17849 -0.15569,0.33778 -0.41363,0.40104 -0.38965,0.0956 -0.42302,0.17561 -0.37335,0.89556 0.0528,0.76575 0.0374,0.79409 -0.49208,0.90154 -0.71483,0.14507 -0.97939,0.14001 -1.07724,-0.0207 z m -0.72479,-3.1445 c 0.13391,-0.21986 -0.26189,-2.33485 -0.40519,-2.16517 -0.0669,0.0792 -0.32495,0.63249 -0.57348,1.22951 l -0.45187,1.0855 h 0.66964 c 0.3683,0 0.71071,-0.0675 0.7609,-0.14984 z m 5.07583,2.45083 c -0.69758,-0.36094 -1.29605,-1.12891 -1.16004,-1.48855 0.0534,-0.14123 0.41703,-0.31163 0.80808,-0.37867 0.60692,-0.10404 0.74785,-0.0685 0.96299,0.24321 0.57241,0.82928 1.77301,0.0611 1.77301,-1.13459 0,-0.62275 -0.17366,-0.73942 -0.50237,-0.33752 -0.28638,0.35016 -1.38979,0.50136 -1.98709,0.27229 -2.23114,-0.85565 -2.66054,-4.31196 -0.68928,-5.5482 2.14206,-1.34338 4.306,0.0774 4.87501,3.20079 0.4902,2.6908 -0.0894,4.37212 -1.77476,5.14899 -0.87267,0.40224 -1.55838,0.40886 -2.30555,0.0222 z m 1.77529,-4.59747 c 0.33234,-0.48148 0.33788,-1.01475 0.0186,-1.79017 -0.33416,-0.81158 -0.95785,-1.09876 -1.5423,-0.71017 -0.36665,0.24379 -0.43491,0.42114 -0.43491,1.13013 0,0.58782 0.1068,0.97874 0.35475,1.2986 0.45298,0.58436 1.22611,0.61889 1.60387,0.0716 z m 11.26333,1.14976 c -0.75535,-0.64264 -0.9743,-1.39307 -0.51348,-1.75995 0.17537,-0.13961 1.76264,-0.7406 1.95602,-0.7406 0.187,0 0.008,1.23903 -0.21149,1.46145 -0.1816,0.18428 -0.21744,0.3596 -0.11244,0.55 0.19504,0.35364 0.0597,1.11589 -0.1972,1.11139 -0.1067,-0.002 -0.52133,-0.2819 -0.92141,-0.62229 z m -27.87463,-0.0837 c -0.25785,-0.33377 -0.43254,-1.33954 -0.25228,-1.45259 0.20267,-0.1271 0.568,0.82898 0.49897,1.30583 -0.0467,0.32237 -0.0908,0.3486 -0.24669,0.14676 z m 27.53214,-3.87032 c -1.3277,-1.53444 -0.93043,-4.42341 0.58409,-4.24747 0.55876,0.0649 0.78538,0.59043 1.10714,2.56746 0.1541,0.94689 0.14535,1.27053 -0.0453,1.67592 -0.3556,0.75619 -0.99381,0.75779 -1.64595,0.004 z m 1.12437,-1.65398 c 0.0672,-0.69409 -0.24767,-1.15682 -0.59064,-0.86797 -0.46357,0.39038 -0.15768,1.6608 0.3586,1.48936 0.0977,-0.0324 0.20208,-0.31205 0.23204,-0.62139 z m -22.29274,-9.14929 c -0.42424,-0.43047 -0.32092,-0.73151 0.41227,-1.20117 0.82819,-0.53052 0.82224,-0.53021 0.89007,-0.0456 0.0392,0.27951 0.15217,0.37562 0.39701,0.33753 0.42903,-0.0668 0.95227,-0.67107 0.83942,-0.96948 -0.18804,-0.49727 0.98403,-0.92309 1.39445,-0.50662 0.32647,0.33128 0.18562,0.84532 -0.41315,1.50783 -0.91494,1.01235 -2.89962,1.50712 -3.52007,0.87752 z m 5.31506,-1.31189 c -0.1895,-0.96143 -0.12432,-1.67117 0.16376,-1.78335 0.48707,-0.18966 1.10724,-0.11077 1.2072,0.15355 0.0827,0.21869 0.16534,0.20519 0.53119,-0.0869 0.48194,-0.38469 1.41616,-0.46994 1.4103,-0.12872 -0.002,0.11941 -0.46503,0.70557 -1.02884,1.3026 -0.85962,0.91027 -1.11804,1.0855 -1.60087,1.0855 -0.50794,0 -0.58837,-0.064 -0.68274,-0.54275 z"
         id="path430"
         sodipodi:nodetypes="csccsssssssssssssssssscssccsscsaasssssssscccssssssscscsssssssscsssssssssssssssssssssssscscsssssssssssssssssssssssssssssssss" /></g><g
       id="g2013"
       transform="translate(-232.23028,72.631692)"
       style="opacity:0.5"><circle
         style="fill:#ffffff;stroke:none;stroke-width:8.07704;stroke-linecap:round;stroke-linejoin:round"
         id="path486"
         cx="274.52618"
         cy="52.758636"
         r="34.027534" /><path
         style="fill:url(#radialGradient1071);fill-opacity:1;stroke-width:0.171319"
         d="m 270.7944,86.562148 c -1.80655,-0.2339 -2.02499,-0.460232 -0.82761,-0.857491 0.51332,-0.170314 1.53665,-0.237558 3.4692,-0.22798 2.48547,0.01236 2.817,0.05005 3.55488,0.404334 1.50866,0.724411 1.08303,0.87353 -2.41248,0.84524 -1.47635,-0.01196 -3.17914,-0.08582 -3.78399,-0.164103 z m -7.46623,-1.848735 c -7.9455,-2.78805 -14.38704,-8.033654 -18.58558,-15.134966 -0.56675,-0.958591 -1.03045,-1.828795 -1.03045,-1.933816 0,-0.10501 0.40474,-0.292771 0.89943,-0.417238 1.04655,-0.263335 2.26641,-1.217214 3.34576,-2.616259 0.76208,-0.987787 2.50818,-4.343381 2.6999,-5.18854 0.0641,-0.282682 0.22468,-0.847019 0.35682,-1.254097 0.13212,-0.407068 0.39349,-1.815088 0.58082,-3.12892 0.92473,-6.485841 -0.0914,-12.715814 -2.66614,-16.346592 -1.29648,-1.828203 -2.37306,-2.655444 -3.45586,-2.655444 -0.40838,0 -0.73281,-0.0815 -0.73281,-0.184152 0,-0.23386 1.35076,-2.32789 2.36769,-3.670526 3.64193,-4.808385 8.89117,-8.795319 14.50723,-11.01863 1.87648,-0.742873 3.97252,-1.402 4.45838,-1.402 0.17038,0 1.11469,0.392134 2.09849,0.87141 2.1939,1.068798 4.01517,1.733221 6.46338,2.357898 3.85463,0.983535 5.20202,1.132343 10.19348,1.12575 4.25427,-0.006 4.83248,-0.0409 5.96091,-0.364195 l 1.24964,-0.357964 0.72874,0.38746 c 2.06113,1.095923 5.62853,4.053755 7.65191,6.34444 2.22494,2.518877 3.62541,4.579934 5.0238,7.393481 1.53007,3.07849 1.74647,3.73609 1.71073,5.198469 -0.25797,10.555012 -0.25379,12.13611 0.0383,14.489667 0.52291,4.213658 0.52236,4.880182 -0.005,6.469148 -2.17852,6.559758 -7.03726,12.832392 -13.14896,16.975329 -1.3234,0.897097 -1.5421,0.992098 -1.88425,0.818497 -0.84632,-0.429438 -2.31821,-0.929648 -3.171,-1.077662 -0.49469,-0.08582 -1.34271,-0.235708 -1.88451,-0.333011 -0.54179,-0.09728 -2.10701,-0.180223 -3.47826,-0.184293 -4.87794,-0.01447 -9.95641,0.948371 -13.28528,2.518806 -0.48056,0.226694 -0.93358,0.412173 -1.00675,0.412173 -0.23101,0 -2.96347,1.729132 -3.27308,2.071258 -0.40562,0.448201 -1.09796,0.406193 -2.72714,-0.165481 z M 284.20865,72.09041 c 7.16329,-1.102264 13.01121,-5.905937 15.83874,-13.010455 0.7846,-1.971402 1.1084,-3.830217 1.18697,-6.813837 0.0703,-2.666206 0.0417,-3.024593 -0.3949,-4.968248 -0.449,-1.998718 -1.62427,-5.126533 -2.29076,-6.096511 -0.17103,-0.248894 -0.60672,-0.915106 -0.96822,-1.480459 -0.55365,-0.865892 -3.81738,-4.313653 -4.74162,-5.00899 -0.61434,-0.462201 -3.40777,-2.100754 -3.58139,-2.100754 -0.10164,0 -0.46512,-0.148405 -0.80774,-0.329794 -0.9326,-0.493748 -2.95758,-1.038539 -4.53401,-1.219817 -2.77027,-0.318569 -6.70049,-0.117493 -8.25257,0.422203 -0.37691,0.131059 -0.90068,0.28648 -1.16394,0.345372 -0.80898,0.180967 -3.21824,1.395749 -4.66092,2.350089 -1.7353,1.147921 -4.57449,3.95586 -5.68997,5.627356 -1.27168,1.905566 -2.32131,4.09723 -2.62552,5.482206 -0.0725,0.329785 -0.27086,1.062175 -0.44094,1.627528 -0.25371,0.84339 -0.3101,1.65839 -0.3141,4.539955 -0.005,3.282783 0.0247,3.618286 0.44877,5.139577 1.15106,4.12948 2.59281,6.582078 5.6986,9.694015 2.09319,2.097336 3.30289,2.986383 5.5786,4.099903 3.48627,1.705846 7.70305,2.318001 11.71492,1.700661 z m -11.68868,-9.682407 c -3.02172,-0.594226 -5.18524,-2.46308 -5.92284,-5.116142 -0.28006,-1.007343 -0.2829,-1.120142 -0.0328,-1.303019 0.26978,-0.197278 2.11888,-0.46203 3.43266,-0.491496 0.66497,-0.01497 0.6751,-0.006 0.88769,0.822266 0.4381,1.706007 1.89187,2.57817 3.64197,2.184941 2.49284,-0.560097 3.0388,-4.975564 0.78727,-6.367082 -0.53977,-0.333604 -0.78745,-0.371351 -1.98263,-0.302158 -0.7512,0.04351 -1.40334,0.01829 -1.44921,-0.05588 -0.13486,-0.218192 0.47595,-3.309375 0.68114,-3.447118 0.10312,-0.06924 0.48676,-0.12705 0.85254,-0.128487 0.87479,-0.003 1.74704,-0.560378 2.16704,-1.383619 1.08967,-2.135938 -0.82464,-4.182583 -3.04998,-3.260814 -0.65156,0.269888 -1.42223,1.234932 -1.57056,1.966669 -0.09,0.444242 -0.19809,0.542469 -0.64494,0.586286 -0.50492,0.04955 -3.02247,-0.39148 -3.334,-0.584025 -0.26346,-0.162817 -0.14725,-0.735898 0.38472,-1.897385 0.87053,-1.900692 1.6839,-2.658529 3.6316,-3.383653 1.46294,-0.54465 2.48674,-0.664575 3.73745,-0.43778 2.27854,0.413178 4.01001,1.613347 4.984,3.454655 0.40082,0.757736 0.48192,1.121017 0.48196,2.158801 4e-5,1.570395 -0.48524,2.610772 -1.70964,3.665209 -0.47297,0.407309 -0.85998,0.78667 -0.86003,0.843029 -5e-5,0.05638 0.28961,0.233095 0.64366,0.392757 0.9716,0.438132 1.98356,1.465153 2.51602,2.553478 0.44771,0.915086 0.4725,1.082265 0.40497,2.732033 -0.087,2.127114 -0.47274,3.013739 -1.98185,4.556014 -1.15034,1.175608 -1.98226,1.638322 -3.76564,2.094433 -1.39371,0.356447 -1.77348,0.375642 -2.93058,0.148094 z m 17.23482,-0.706713 c -0.0537,-0.139763 -0.0308,-1.287844 0.0505,-2.551298 0.0814,-1.263453 0.15142,-4.635699 0.1555,-7.493878 l 0.007,-5.19669 -0.47113,0.363371 c -1.4873,1.147147 -4.04249,2.485953 -4.44776,2.330432 -0.1969,-0.07557 -0.23499,-0.444161 -0.19056,-1.844232 l 0.0556,-1.749794 1.34575,-0.701638 c 1.74661,-0.910624 2.96236,-1.998979 3.70817,-3.319585 l 0.59961,-1.061743 1.32008,0.05156 c 0.72604,0.02834 1.39818,0.129663 1.49365,0.225126 0.4777,0.477698 0.69904,20.365002 0.23186,20.832188 -0.0821,0.08211 -0.96197,0.199026 -1.95525,0.259797 -1.50895,0.09236 -1.82197,0.06874 -1.90344,-0.143611 z m -46.59778,-0.455378 c -0.9474,-0.257054 -1.81532,-0.600878 -2.00788,-0.795403 -0.35241,-0.356015 -0.94732,-2.89496 -0.75228,-3.210555 0.0573,-0.09266 0.39568,-0.120316 0.75966,-0.06211 l 0.65641,0.104961 -0.40287,-1.071592 c -0.22157,-0.589372 -0.43027,-1.534155 -0.46377,-2.099508 l -0.0609,-1.027915 h 0.76354 0.76356 l 0.39499,1.284899 c 0.53113,1.727725 1.14848,2.929482 1.90464,3.707659 0.58148,0.598407 0.63474,0.740742 0.72539,1.938299 0.0953,1.258971 -0.023,1.740005 -0.41861,1.702399 -0.10625,-0.01005 -0.94409,-0.222111 -1.86188,-0.471126 z m -2.93037,-10.94595 c -0.15002,-0.242733 0.13852,-2.742535 0.45978,-3.983276 0.13418,-0.518239 0.29469,-1.228881 0.35668,-1.579198 0.12069,-0.682001 0.48515,-1.16191 0.88242,-1.16191 0.18881,0 0.24475,0.274109 0.24475,1.199235 0,0.734592 0.0708,1.199235 0.18258,1.199235 0.72814,0 1.18521,-0.929458 1.18702,-2.413796 8e-4,-0.669478 -0.0616,-0.814789 -0.42047,-0.978279 l -0.42141,-0.192012 0.33576,-0.975877 c 0.18466,-0.536741 0.33575,-1.103269 0.33575,-1.258961 0,-0.155692 0.10655,-0.428786 0.23678,-0.606889 0.2158,-0.295113 0.29773,-0.303695 0.92459,-0.09678 0.75972,0.250733 0.92029,0.500089 1.23898,1.924148 0.39938,1.784647 -0.50894,5.636882 -1.66302,7.052912 -0.21708,0.26635 -0.39469,0.541173 -0.39469,0.610717 0,0.174184 -1.14397,0.705106 -1.50486,0.698412 -0.38161,-0.007 -0.79396,-0.334106 -0.96517,-0.765484 -0.12912,-0.325323 -0.14462,-0.320991 -0.30673,0.08562 -0.49632,1.245032 -0.59745,1.422261 -0.70874,1.242178 z M 285.29789,20.72989 c -1.68691,-0.565282 -2.4125,-0.967657 -1.74496,-0.967657 0.76958,0 4.1882,1.180773 4.1882,1.446581 0,0.218603 -0.87149,0.04774 -2.44324,-0.478924 z m -13.83206,-1.463254 c 0,-0.293907 0.11029,-0.537946 0.27098,-0.599612 0.35538,-0.136376 3.81111,-0.130165 4.32628,0.008 0.49108,0.131481 0.17181,0.394927 -0.48561,0.400686 -0.23557,0.002 -0.65958,0.156928 -0.94225,0.344136 -0.40134,0.265797 -0.80488,0.340628 -1.84168,0.341513 l -1.32772,0.001 z"
         id="path432"
         sodipodi:nodetypes="cscssccssssssssssssssscccssssscssssssssccsssssssssssssssscsssssssccssscscssssssssssssssssssscsccssccsscssssccsssscsscccssscsssssssssscssscssscscsssssssccsccs" /></g><g
       id="g2017"
       transform="translate(-229.36324,58.296489)"
       style="opacity:0.5"><circle
         style="fill:#ffffff;stroke:none;stroke-width:6.9943;stroke-linecap:round;stroke-linejoin:round"
         id="circle1075"
         cx="366.93744"
         cy="57.657955"
         r="29.466101" /><path
         style="fill:url(#radialGradient1083);fill-opacity:1;stroke-width:0.171947"
         d="m 363.35054,86.833114 c -3.12819,-0.406216 -6.76743,-1.524492 -9.61283,-2.953854 -1.78916,-0.898779 -4.77346,-2.871967 -5.92403,-3.916923 l -0.5472,-0.49697 0.18805,-1.040641 c 0.24344,-1.347228 0.0815,-5.583216 -0.2713,-7.096979 -1.34694,-5.779295 -4.31424,-11.467712 -7.21201,-13.825706 -1.26958,-1.033084 -1.92105,-1.355167 -2.21928,-1.097187 -0.36099,0.312269 -0.40352,-0.364768 -0.1565,-2.491404 0.7176,-6.177958 2.88124,-10.987903 6.99886,-15.55894 1.5215,-1.68904 1.74167,-1.835639 3.42974,-2.283613 2.62205,-0.695841 3.31247,-0.910817 4.93176,-1.535562 2.28275,-0.880718 6.14663,-2.864172 8.26994,-4.245216 0.98338,-0.639605 1.83025,-1.226157 1.88194,-1.303441 0.22922,-0.342668 2.21122,-0.529624 4.62186,-0.435956 4.07014,0.158153 7.53488,0.918819 11.10408,2.437853 1.97146,0.839052 4.57005,2.286476 5.08505,2.832392 0.20067,0.212732 0.48218,0.917563 0.64207,1.607627 0.36384,1.570215 1.28436,3.999232 2.19535,5.793022 2.43215,4.789 4.91084,8.124799 8.08957,10.886878 0.64843,0.563432 1.24058,1.188228 1.31591,1.388427 0.0753,0.2002 0.18149,1.445072 0.23593,2.76637 0.18985,4.60679 -0.70434,9.000531 -2.73616,13.444647 -0.7405,1.619655 -2.63351,4.955433 -2.81195,4.955093 -0.0253,-5.1e-5 -0.44459,-0.15804 -0.93191,-0.351092 -1.08244,-0.42882 -3.12616,-0.468631 -4.98874,-0.09721 -4.16156,0.829908 -9.73864,3.958423 -12.78297,7.170699 -1.37694,1.452914 -2.65491,3.31024 -3.17147,4.609243 l -0.38042,0.956642 -2.36903,-0.02626 c -1.30298,-0.01441 -2.59642,-0.05581 -2.87431,-0.09196 z m 7.10542,-14.898921 c 3.53607,-0.836096 6.58935,-2.543961 9.03075,-5.051376 2.20039,-2.259877 3.63923,-4.913232 4.61423,-8.509039 0.41228,-1.520497 0.46252,-1.997305 0.46625,-4.425079 0.004,-2.441204 -0.0438,-2.901463 -0.46223,-4.476425 -0.84583,-3.183525 -2.32301,-5.867444 -4.46513,-8.112833 -1.69906,-1.780979 -2.45385,-2.357613 -4.52013,-3.453255 -2.50306,-1.327239 -4.3958,-1.840304 -7.33998,-1.989642 -4.09412,-0.207655 -8.09136,1.079052 -11.443,3.683513 -3.6675,2.849898 -5.94653,6.845114 -6.80942,11.937178 -1.04221,6.150124 2.06742,13.724455 7.09701,17.286681 2.29679,1.626719 4.36648,2.499991 7.73677,3.264425 0.90068,0.204297 5.01952,0.100099 6.09488,-0.154148 z m -10.55718,-5.978526 c -1.32292,-0.502624 -3.03253,-1.992423 -3.03253,-2.642625 0,-0.188089 2.46579,-1.991414 2.72299,-1.991414 0.0891,0 0.34499,0.226737 0.56873,0.50387 0.56273,0.697047 1.26478,0.961123 2.28384,0.859061 0.67351,-0.06745 0.96908,-0.203762 1.38754,-0.639924 0.49962,-0.520748 0.53173,-0.631634 0.53173,-1.836371 0,-1.109286 -0.0633,-1.38193 -0.46991,-2.022256 -1.08528,-1.709317 -2.89664,-1.894512 -4.29318,-0.438911 -0.34036,0.354748 -0.46792,0.177306 -0.96282,-1.339298 l -0.4249,-1.302071 0.46485,-0.396662 c 0.25566,-0.218158 0.5155,-0.399492 0.57742,-0.402962 0.2499,-0.014 0.81375,-1.224739 0.81375,-1.74733 0,-0.988658 -0.67076,-1.963538 -1.49548,-2.17352 -0.62309,-0.158637 -1.65234,0.361863 -2.05356,1.03852 -0.27808,0.468981 -0.34295,0.81614 -0.29798,1.594692 l 0.0575,0.995213 -1.38274,0.51563 c -0.76051,0.283602 -1.49946,0.468942 -1.64212,0.411882 -0.20726,-0.0829 -0.25939,-0.42459 -0.25939,-1.700221 0,-1.374835 0.0625,-1.729655 0.45065,-2.555763 0.58311,-1.241221 1.79556,-2.411336 3.21704,-3.104706 2.81006,-1.370695 5.8393,-0.201661 6.67786,2.5771 0.22964,0.760954 0.24361,1.073285 0.0836,1.869581 -0.10566,0.525804 -0.34159,1.212738 -0.52431,1.526532 l -0.33221,0.570531 h 0.87842 c 1.28764,0 2.11327,0.322064 3.0315,1.182557 3.19744,2.996344 1.998,8.448046 -2.29403,10.426907 -1.09348,0.504158 -3.24588,0.615714 -4.28227,0.221958 z m 13.80057,-7.161833 c -2.47376,-0.986815 -3.9962,-2.682363 -5.85136,-6.516704 -1.16996,-2.418093 -1.58473,-3.772373 -1.68021,-5.486159 -0.0625,-1.122457 -0.0127,-1.640981 0.21905,-2.2821 0.70894,-1.960593 2.15705,-3.310806 4.1027,-3.825355 1.21038,-0.320106 2.21195,-0.237868 3.33283,0.273643 0.77404,0.353234 2.28881,1.714754 2.15633,1.938175 -0.0459,0.07754 -0.61674,0.46133 -1.26842,0.852933 l -1.18487,0.712019 -0.69159,-0.522179 c -0.87499,-0.660633 -1.66337,-0.688386 -2.42203,-0.08526 -1.11808,0.888873 -1.12662,2.06042 -0.0365,5.004996 0.15924,0.430107 0.17068,0.422178 0.57317,-0.397092 0.44095,-0.897595 1.40522,-1.739335 2.37443,-2.072726 0.34721,-0.119433 1.14186,-0.173013 1.89345,-0.127662 1.06854,0.06446 1.46127,0.177215 2.24468,0.644384 2.71638,1.619891 4.17309,5.478136 3.14725,8.335877 -0.76715,2.137118 -2.8618,3.669869 -5.12474,3.750028 -0.69269,0.02451 -1.43438,-0.05725 -1.7842,-0.196833 z m 3.40765,-3.644866 c 0.55115,-0.401357 0.88214,-1.370738 0.73919,-2.164927 -0.0585,-0.324864 -0.37699,-1.154607 -0.70782,-1.843857 -0.96225,-2.00476 -2.27242,-2.733606 -3.61404,-2.010486 -1.23889,0.667749 -1.48754,2.217131 -0.64953,4.047292 0.9835,2.147885 2.81728,3.002322 4.2322,1.971978 z m -5.08267,31.302758 c 0,-0.590784 2.44464,-2.085814 4.21058,-2.574999 0.50948,-0.141131 1.38107,-0.251987 1.93686,-0.246344 2.62657,0.02668 1.82706,0.708435 -2.43551,2.076875 -2.41209,0.774373 -3.71193,1.03507 -3.71193,0.744468 z m 10.36974,-4.284018 c 0.35645,-1.186756 2.43282,-3.491305 4.03043,-4.473373 1.04687,-0.643508 2.44214,-0.976393 2.44214,-0.582648 0,0.277381 -1.1758,1.448259 -2.35136,2.341498 -0.51308,0.389873 -1.27978,1.041887 -1.70375,1.448937 -0.82794,0.794865 -2.05461,1.660557 -2.35297,1.660557 -0.11277,0 -0.13754,-0.151737 -0.0645,-0.394971 z m -38.12513,-5.705244 c -0.41087,-0.458622 -0.9189,-1.237556 -1.12897,-1.730983 -0.21008,-0.493429 -0.75108,-1.322883 -1.20224,-1.84323 -0.78799,-0.908829 -1.90771,-2.855119 -1.74132,-3.026731 0.0441,-0.04551 0.2936,-0.03995 0.55448,0.01225 0.94585,0.189366 3.02273,2.732493 3.98295,4.877097 0.39679,0.886216 0.66932,2.545414 0.4181,2.545414 -0.0748,0 -0.47214,-0.37523 -0.883,-0.833842 z m -5.05832,-9.048302 c -0.4072,-0.511409 -0.7387,-1.845928 -0.77957,-3.138432 -0.0322,-1.018831 -0.13357,-1.507522 -0.41618,-2.006768 -0.24301,-0.429294 -0.40768,-1.08381 -0.47113,-1.87263 -0.0966,-1.201389 -0.0938,-1.212109 0.30467,-1.153061 0.95541,0.141594 2.09902,3.947084 1.98343,6.600079 -0.0648,1.487132 -0.27155,2.00995 -0.62122,1.570812 z M 394.87728,49.70655 c -1.25134,-0.885471 -2.238,-6.337311 -2.92393,-6.992796 -0.13391,0 -0.19576,-0.08042 -0.13748,-0.178728 0.32609,-0.549921 1.82686,1.56522 2.17466,3.064916 0.0659,0.283971 0.34048,0.980019 0.61027,1.546756 1.034,2.172182 1.21432,3.841759 0.27648,2.559852 z m -5.57236,-10.794497 c -1.20982,-1.254793 -1.90516,-2.166847 -1.65198,-2.166847 0.20989,0 2.89787,2.927142 2.89787,3.155701 0,0.288235 -0.062,0.23896 -1.24589,-0.988854 z"
         id="path1073"
         sodipodi:nodetypes="ssscsssssssssssssssssssssssscssscsscsssssssscsssssssssscsssssscsssssssscsssssssscsssscsssssssssssssssssssssssssssssssssscsssssssssssccssscssss" /></g><g
       id="g2021"
       transform="translate(-371.75958,61.64137)"
       style="opacity:0.5"><circle
         style="fill:#ffffff;stroke:none;stroke-width:7.99999;stroke-linecap:round;stroke-linejoin:round"
         id="path1139"
         cx="428.72424"
         cy="124.50109"
         r="14.514393" /><path
         style="fill:url(#radialGradient1147);fill-opacity:1;stroke-width:0.174839"
         d="m 426.83579,139.07334 c -0.22191,-0.0406 -0.40347,-0.13699 -0.40347,-0.21413 0,-0.0771 -0.56558,-0.27201 -1.25683,-0.43305 -1.37065,-0.31932 -1.51518,-0.42244 -1.3376,-0.95433 0.0891,-0.26671 0.21457,-0.32861 0.50471,-0.2489 0.37382,0.1027 3.37763,0.73366 4.19673,0.88155 0.60397,0.10904 0.48646,0.56219 -0.21839,0.84216 -0.62811,0.24948 -0.75528,0.26033 -1.48515,0.1267 z m 2.92759,-0.81056 c -1.17604,-1.9077 -4.41598,-3.5705 -7.83582,-4.02149 -1.27895,-0.16866 -1.66252,-0.15717 -2.57839,0.0773 l -1.07592,0.27541 -0.59841,-0.64077 c -1.75382,-1.87797 -3.15294,-5.25857 -3.37881,-8.164 -0.10319,-1.32797 -0.0799,-1.44802 0.55441,-2.85196 0.72794,-1.61119 1.53995,-4.42517 1.53995,-5.33668 0,-0.95434 0.66295,-1.92509 2.48731,-3.64212 1.74551,-1.64282 3.18312,-2.51821 5.45604,-3.32232 l 0.86021,-0.30432 1.30825,0.62298 c 0.71953,0.34264 1.94632,0.78413 2.7262,0.9811 1.71881,0.43411 4.62253,0.59886 6.0587,0.34375 1.04748,-0.18606 1.05977,-0.18349 1.88985,0.39578 2.32466,1.62223 4.28452,4.29341 5.29428,7.21581 l 0.31036,0.89824 -0.90931,0.7772 c -1.03037,0.88067 -1.98231,2.54952 -2.4701,4.33034 -0.61474,2.24426 -0.29128,5.54699 0.65528,6.69096 0.19902,0.24052 0.36185,0.50494 0.36185,0.5876 0,0.31307 -2.41417,2.64777 -3.4985,3.38334 -1.78457,1.21059 -5.04223,2.46427 -6.40336,2.46427 -0.15693,0 -0.49626,-0.34218 -0.75407,-0.76039 z m 0.29408,-7.15858 c 2.3275,-0.76504 4.24956,-2.43747 5.22954,-4.55034 1.52402,-3.28585 0.9263,-6.78877 -1.56632,-9.17934 -2.66112,-2.55218 -6.68171,-3.24373 -10.06119,-1.73055 -3.26386,1.46141 -5.13683,4.25706 -5.15601,7.69598 -0.032,5.7426 5.79389,9.6576 11.55398,7.76425 z m -1.69745,-3.19707 c -0.36984,-0.0929 -0.67245,-0.27546 -0.67245,-0.40578 0,-1.01446 1.77318,-3.78073 3.30795,-5.16061 0.54766,-0.49239 0.99575,-0.95508 0.99575,-1.02819 0,-0.0731 -0.66573,-0.27378 -1.4794,-0.44591 -2.34999,-0.49715 -2.28499,-0.45735 -2.06884,-1.26689 0.14349,-0.53742 0.27008,-0.69201 0.56665,-0.69201 0.21003,0 1.5115,0.33462 2.89214,0.74361 2.39213,0.70861 2.50803,0.76362 2.46267,1.16894 -0.0299,0.267 -0.59731,0.95796 -1.52423,1.85606 -1.39484,1.35149 -2.11188,2.43708 -3.35912,5.08567 -0.15284,0.32454 -0.32017,0.3462 -1.12112,0.14511 z m -5.60375,-1.42491 c -1.18351,-0.32147 -2.37376,-0.6326 -2.64497,-0.6914 -0.55544,-0.12042 -0.6111,-0.37577 -0.23332,-1.07027 0.36385,-0.66888 1.26728,-1.38313 3.08094,-2.43578 1.99276,-1.1566 2.64733,-2.09236 1.93638,-2.76821 -0.46952,-0.44635 -1.25106,-0.33474 -1.73002,0.24704 -0.40043,0.48642 -0.45825,0.50401 -1.04408,0.31768 -0.92563,-0.29441 -0.98935,-0.41697 -0.53998,-1.0385 0.64694,-0.89479 1.23397,-1.21965 2.33248,-1.29079 1.25044,-0.081 2.40682,0.44791 2.90321,1.3278 0.87092,1.54377 -0.11401,3.1122 -2.93989,4.6816 -0.66573,0.36972 -1.21041,0.72388 -1.21041,0.78703 0,0.0632 0.3833,0.20471 0.85177,0.31458 2.46804,0.57885 2.33376,0.47265 2.00792,1.58802 -0.10267,0.3516 -0.28382,0.63396 -0.40246,0.62748 -0.11866,-0.006 -1.18406,-0.27481 -2.36757,-0.59628 z m -1.33135,10.67384 c -0.63361,-0.37049 -1.31726,-0.83072 -1.51923,-1.02272 l -0.36722,-0.34909 h 0.38362 c 0.93235,0 3.10316,1.26274 3.10316,1.80508 0,0.38566 -0.37211,0.28491 -1.60033,-0.43327 z m 19.6519,-5.57674 c -0.24946,-0.23715 -0.0969,-1.70736 0.25361,-2.4434 0.37067,-0.77843 1.17134,-1.70469 1.47356,-1.70469 0.24042,0 -0.0197,1.1345 -0.42484,1.85315 -0.19027,0.33748 -0.34594,0.74639 -0.34594,0.90867 0,0.34881 -0.55304,1.49992 -0.72062,1.49992 -0.064,0 -0.17001,-0.0511 -0.23577,-0.11365 z m 1.19781,-5.26294 c -0.0583,-0.14437 -0.0205,-0.70053 0.0838,-1.2359 0.10435,-0.53538 0.24322,-1.45286 0.30851,-2.03885 0.0653,-0.58599 0.18093,-1.06544 0.25696,-1.06544 0.31191,0 0.50894,3.30582 0.25147,4.21913 -0.12436,0.44114 -0.73828,0.52365 -0.90079,0.12106 z m -9.29277,-15.35191 c -0.39213,-0.13645 -0.7956,-0.33297 -0.8966,-0.4367 -0.26733,-0.27454 0.82148,-0.0566 1.75379,0.35111 0.6293,0.27517 0.67903,0.32937 0.30406,0.33134 -0.24657,10e-4 -0.76913,-0.10929 -1.16125,-0.24575 z m -3.85972,-0.73852 c -0.41463,-0.11498 -0.39926,-0.13018 0.20454,-0.20231 0.7337,-0.0876 1.0507,-0.026 1.0507,0.20434 0,0.17989 -0.60273,0.17891 -1.25524,-0.002 z"
         id="path1085"
         sodipodi:nodetypes="ssssssssssscsssssscssssscsssssssssssssssssssssssssssssssssssssssscssscssscssssscsssssssssscssssss" /></g><g
       id="g2029"
       transform="translate(-438.6572,-64.50841)"
       style="opacity:0.5"><circle
         style="fill:#ffffff;stroke:none;stroke-width:7.99999;stroke-linecap:round;stroke-linejoin:round"
         id="path1273"
         cx="591.80371"
         cy="257.29865"
         r="35.477818" /><path
         style="fill:url(#radialGradient1283);fill-opacity:1;stroke-width:0.176641"
         d="m 586.88129,292.51468 c -5.18171,-0.74751 -10.70229,-2.88501 -14.98103,-5.80048 -4.47584,-3.04978 -8.38337,-7.32178 -11.03235,-12.06143 l -0.9818,-1.75666 -0.11823,-3.72513 c -0.11827,-3.72679 -0.61943,-8.78238 -1.10781,-11.17538 -0.14277,-0.69961 -0.38297,-1.88528 -0.53377,-2.63486 -0.1508,-0.74957 -0.37174,-1.69376 -0.49099,-2.0982 -0.56874,-1.92907 -0.61946,-2.8895 -0.23654,-4.47946 0.8015,-3.32796 2.51482,-7.36418 4.39247,-10.34764 0.95775,-1.52184 1.61671,-2.38913 1.72673,-2.27268 0.0323,0.0342 -0.14438,0.54495 -0.39269,1.13499 -1.72219,4.09213 -1.77987,8.88017 -0.15523,12.88416 0.52753,1.30011 1.7961,3.13992 2.90722,4.21637 4.2883,4.15444 11.53905,5.43101 17.61343,3.10102 4.62915,-1.77563 8.79117,-5.0445 11.46522,-9.00485 2.64309,-3.91449 4.02361,-9.30149 3.48768,-13.60958 -0.44678,-3.59152 -1.7581,-6.33849 -4.22101,-8.84224 -0.71374,-0.72557 -2.26099,-1.88296 -3.00493,-2.24776 -1.36175,-0.66777 -2.22204,-0.98333 -3.20147,-1.1743 -0.67142,-0.13092 -1.03749,-0.27958 -0.94071,-0.382 0.35351,-0.37411 4.33063,-0.56087 7.14711,-0.33561 4.96356,0.39698 6.38481,0.82968 7.97342,2.42749 1.1911,1.19799 4.32454,3.71331 6.00396,4.8196 2.84799,1.87606 5.71539,3.33485 9.62116,4.89479 1.1835,0.47267 1.35088,0.60871 2.30389,1.87255 3.31717,4.39902 5.67513,9.83841 6.67256,15.39231 0.50098,2.78959 0.54903,9.00816 0.0891,11.54325 -1.13379,6.25047 -3.16266,11.02464 -6.73918,15.85798 -1.06503,1.43931 -2.1431,2.64213 -2.1431,2.39111 0,-0.0716 0.23014,-0.61253 0.51143,-1.20223 0.2813,-0.5897 0.7256,-1.71171 0.98735,-2.49337 0.43344,-1.29442 0.47588,-1.64815 0.47588,-3.96519 0,-2.24226 -0.0491,-2.68408 -0.41457,-3.72514 -1.63443,-4.65648 -5.21724,-7.56802 -10.64853,-8.6534 -2.7454,-0.54862 -6.70159,-0.30151 -9.37041,0.58532 -2.42059,0.80434 -5.75579,2.6153 -7.81283,4.24224 -1.21172,0.95837 -3.3715,3.19811 -4.26171,4.41949 -1.58524,2.17496 -2.93427,5.53858 -3.38282,8.43455 -0.69849,4.5096 0.27208,7.94414 3.07319,10.87509 1.112,1.16353 1.72438,1.63315 3.02111,2.31684 l 1.62642,0.8575 -1.62642,-0.0187 c -0.89452,-0.0106 -2.38009,-0.12745 -3.30127,-0.26034 z m 12.70079,-2.9859 c -1.1935,-1.34262 -3.27975,-3.99752 -4.47924,-5.70017 l -0.49114,-0.69716 -0.56108,1.0713 c -0.69325,1.32366 -1.91976,2.77616 -2.34424,2.77616 -0.17435,0 -0.31871,-0.0612 -0.32079,-0.13629 -0.002,-0.075 -0.34979,-0.53717 -0.7727,-1.02714 -0.4229,-0.48996 -0.76891,-1.01067 -0.76891,-1.15715 0,-0.14646 0.2432,-0.55941 0.54043,-0.91768 0.29725,-0.35825 0.77311,-1.17752 1.05747,-1.82061 0.43049,-0.97352 0.52082,-1.41551 0.53967,-2.64059 0.0221,-1.43555 0.0349,-1.47807 0.52851,-1.74679 0.27822,-0.15148 0.91696,-0.54314 1.41944,-0.87034 0.50247,-0.32721 0.97362,-0.55565 1.04698,-0.50768 0.0733,0.048 0.35723,0.43835 0.6308,0.8675 2.645,4.14895 7.73978,11.34603 8.24462,11.64664 0.57442,0.34205 0.21843,0.7691 -1.24209,1.49012 -0.80981,0.39976 -1.53005,0.75033 -1.60054,0.779 -0.0705,0.0287 -0.71273,-0.60542 -1.42719,-1.40912 z m 10.54733,-4.86672 c -0.93108,-2.45181 -1.12576,-8.45101 -0.42016,-12.94709 0.096,-0.61141 0.0873,-0.62434 -0.22403,-0.33442 -0.36214,0.33726 -5.19184,3.78697 -5.30187,3.78697 -0.0386,0 -0.41368,0.24532 -0.83348,0.54515 -0.73295,0.52348 -1.31446,0.70192 -1.31446,0.40336 0,-0.078 -0.3472,-0.71171 -0.77154,-1.40828 -0.42435,-0.69658 -0.77206,-1.35334 -0.77269,-1.45947 -10e-4,-0.18152 0.90482,-0.98818 1.10976,-0.98818 0.052,0 0.47934,-0.2862 0.9496,-0.63599 0.47027,-0.3498 0.89525,-0.636 0.94441,-0.636 0.0491,0 0.45945,-0.26576 0.91175,-0.59056 0.45231,-0.32482 0.94364,-0.67234 1.09184,-0.77229 0.77634,-0.52352 3.35059,-2.41529 4.82535,-3.54604 0.9227,-0.70746 1.75652,-1.2347 1.85296,-1.17164 0.0964,0.0632 0.40965,0.63953 0.69604,1.281 l 0.52073,1.16633 -0.37601,2.04375 c -0.31754,1.72589 -0.37746,2.69372 -0.38523,6.22314 -0.008,3.73425 0.0318,4.3579 0.37651,5.8551 0.21214,0.92161 0.34314,1.74857 0.29111,1.83766 -0.17702,0.30311 -2.44549,1.84722 -2.71376,1.84722 -0.14688,0 -0.35247,-0.22488 -0.45683,-0.49972 z M 558.50664,269.7158 c -0.399,-0.68322 -1.46043,-4.69215 -1.45827,-5.50775 8.7e-4,-0.35456 0.0288,-0.34126 0.25757,0.1229 0.14108,0.28627 0.25651,0.65242 0.25651,0.81368 0,0.26483 0.97056,2.99574 1.40867,3.96363 0.25587,0.56528 -0.16651,1.11775 -0.46448,0.60754 z m 13.05625,-22.25183 c -0.46888,-0.94409 -0.81659,-1.74613 -0.77269,-1.78232 1.11006,-0.91528 3.86829,-2.37994 5.83209,-3.09695 2.8502,-1.04065 6.2765,-1.63841 9.39383,-1.63886 1.62047,-1.8e-4 2.23317,-0.0578 2.14637,-0.2021 -0.13262,-0.22027 -2.03038,-3.18572 -3.46118,-5.40844 -0.49561,-0.76994 -0.87111,-1.49511 -0.83444,-1.61152 0.062,-0.19659 2.96903,-1.99167 3.20807,-1.98092 0.21931,0.01 7.40522,11.11372 7.40522,11.44273 0,0.0811 -0.60612,0.52361 -1.34692,0.98321 -1.32947,0.82483 -1.35869,0.83329 -2.25567,0.65327 -1.20232,-0.2413 -5.23282,-0.23484 -6.95759,0.0111 -2.2866,0.3261 -4.42917,0.93903 -7.21184,2.06306 -0.76723,0.30993 -3.00389,1.53389 -3.53671,1.9354 -0.2561,0.19298 -0.53097,0.35042 -0.61084,0.34986 -0.0799,-5.4e-4 -0.52882,-0.77345 -0.9977,-1.71754 z m -4.22372,-9.45283 c -0.27741,-0.64744 -0.50437,-1.25078 -0.50437,-1.34079 0,-0.25126 1.57885,-1.61804 3.94935,-3.41883 2.34422,-1.78084 5.90339,-4.23919 6.13745,-4.23919 0.0809,0 0.24032,-0.0986 0.3542,-0.21913 0.16162,-0.17104 -0.12296,-0.30136 -1.29641,-0.59374 -1.29522,-0.32271 -1.51108,-0.4308 -1.55835,-0.78029 -0.0329,-0.24358 0.0357,-0.40639 0.17171,-0.40742 0.12462,-9.1e-4 0.72284,-0.33487 1.32938,-0.74205 0.84627,-0.5681 1.20575,-0.71307 1.5454,-0.62319 1.97466,0.52262 3.23437,0.6454 4.5273,0.44124 0.73555,-0.11614 1.35866,-0.18023 1.38468,-0.14243 0.026,0.0378 0.34838,0.46611 0.71635,0.9518 0.77823,1.02718 0.8127,0.9653 -1.12029,2.01111 -1.02322,0.55361 -2.63243,1.49931 -3.26249,1.91732 -0.14166,0.094 -0.72119,0.46214 -1.28783,0.81814 -3.0374,1.90826 -8.01521,5.52967 -9.66468,7.03115 -0.31021,0.2824 -0.64346,0.51345 -0.74053,0.51345 -0.0971,0 -0.40348,-0.52972 -0.68087,-1.17715 z"
         id="path1149"
         sodipodi:nodetypes="ssscsssssssssssssssssssssssssssssssssssssccsssscsssssssssssssssssssssssssssssssscscssssssssssssssssscssssssssssssssssssssssssssss" /></g></g></svg>
