<?xml version="1.0" encoding="UTF-8" standalone="no"?>
<!-- Created with Inkscape (http://www.inkscape.org/) -->

<svg
   width="106.23054mm"
   height="91.251518mm"
   viewBox="0 0 106.23054 91.251518"
   version="1.1"
   id="svg5"
   xml:space="preserve"
   inkscape:version="1.2.1 (9c6d41e4, 2022-07-14)"
   sodipodi:docname="Titre.svg"
   xmlns:inkscape="http://www.inkscape.org/namespaces/inkscape"
   xmlns:sodipodi="http://sodipodi.sourceforge.net/DTD/sodipodi-0.dtd"
   xmlns:xlink="http://www.w3.org/1999/xlink"
   xmlns="http://www.w3.org/2000/svg"
   xmlns:svg="http://www.w3.org/2000/svg"><sodipodi:namedview
     id="namedview7"
     pagecolor="#ffffff"
     bordercolor="#666666"
     borderopacity="1.0"
     inkscape:showpageshadow="2"
     inkscape:pageopacity="0.0"
     inkscape:pagecheckerboard="0"
     inkscape:deskcolor="#d1d1d1"
     inkscape:document-units="mm"
     showgrid="false"
     inkscape:zoom="1.1074137"
     inkscape:cx="301.60363"
     inkscape:cy="148.5443"
     inkscape:window-width="1832"
     inkscape:window-height="997"
     inkscape:window-x="0"
     inkscape:window-y="23"
     inkscape:window-maximized="0"
     inkscape:current-layer="layer1" /><defs
     id="defs2"><linearGradient
       inkscape:collect="always"
       id="linearGradient4827"><stop
         style="stop-color:#fff9e1;stop-opacity:1;"
         offset="0"
         id="stop4823" /><stop
         style="stop-color:#ffcc00;stop-opacity:1;"
         offset="1"
         id="stop4825" /></linearGradient><linearGradient
       inkscape:collect="always"
       id="linearGradient2296"><stop
         style="stop-color:#b3d4b3;stop-opacity:1;"
         offset="0"
         id="stop2292" /><stop
         style="stop-color:#00d400;stop-opacity:1;"
         offset="1"
         id="stop2294" /></linearGradient><linearGradient
       inkscape:collect="always"
       id="linearGradient2270"><stop
         style="stop-color:#ffd4ff;stop-opacity:1;"
         offset="0"
         id="stop2266" /><stop
         style="stop-color:#ff00ff;stop-opacity:1;"
         offset="1"
         id="stop2268" /></linearGradient><linearGradient
       inkscape:collect="always"
       id="linearGradient1189"><stop
         style="stop-color:#ffd7d7;stop-opacity:1;"
         offset="0"
         id="stop1185" /><stop
         style="stop-color:#ff0000;stop-opacity:1;"
         offset="1"
         id="stop1187" /></linearGradient><linearGradient
       inkscape:collect="always"
       id="linearGradient1181"><stop
         style="stop-color:#cfdfff;stop-opacity:1;"
         offset="0"
         id="stop1177" /><stop
         style="stop-color:#2a7fff;stop-opacity:1;"
         offset="1"
         id="stop1179" /></linearGradient><linearGradient
       inkscape:collect="always"
       id="linearGradient1173"><stop
         style="stop-color:#ffcccc;stop-opacity:1;"
         offset="0"
         id="stop1169" /><stop
         style="stop-color:#ff0000;stop-opacity:1;"
         offset="1"
         id="stop1171" /></linearGradient><linearGradient
       inkscape:collect="always"
       id="linearGradient1165"><stop
         style="stop-color:#e9f3ff;stop-opacity:1;"
         offset="0"
         id="stop1161" /><stop
         style="stop-color:#2a7fff;stop-opacity:1;"
         offset="1"
         id="stop1163" /></linearGradient><inkscape:perspective
       sodipodi:type="inkscape:persp3d"
       inkscape:vp_x="0 : -57.248485 : 1"
       inkscape:vp_y="0 : 999.99995 : 0"
       inkscape:vp_z="210 : -57.248485 : 1"
       inkscape:persp3d-origin="105 : -106.74848 : 1"
       id="perspective524" /><radialGradient
       inkscape:collect="always"
       xlink:href="#linearGradient1165"
       id="radialGradient1167"
       cx="72.138229"
       cy="102.2099"
       fx="72.138229"
       fy="102.2099"
       r="11.319112"
       gradientUnits="userSpaceOnUse" /><radialGradient
       inkscape:collect="always"
       xlink:href="#linearGradient1173"
       id="radialGradient1175"
       cx="90.215012"
       cy="93.593857"
       fx="90.215012"
       fy="93.593857"
       r="15.373719"
       gradientUnits="userSpaceOnUse" /><radialGradient
       inkscape:collect="always"
       xlink:href="#linearGradient1181"
       id="radialGradient1183"
       cx="110.65699"
       cy="104.74403"
       fx="110.65699"
       fy="104.74403"
       r="11.319112"
       gradientUnits="userSpaceOnUse"
       gradientTransform="translate(0.33788396,1.5204778)" /><radialGradient
       inkscape:collect="always"
       xlink:href="#linearGradient1189"
       id="radialGradient1191"
       cx="132.11263"
       cy="105.41981"
       fx="132.11263"
       fy="105.41981"
       r="15.373719"
       gradientUnits="userSpaceOnUse" /><radialGradient
       inkscape:collect="always"
       xlink:href="#linearGradient2270"
       id="radialGradient2272"
       cx="87.343002"
       cy="123.66553"
       fx="87.343002"
       fy="123.66553"
       r="7.6622667"
       gradientUnits="userSpaceOnUse" /><radialGradient
       inkscape:collect="always"
       xlink:href="#linearGradient1189"
       id="radialGradient2288"
       gradientUnits="userSpaceOnUse"
       gradientTransform="translate(18.75256,2.7030717)"
       cx="87.343002"
       cy="123.66553"
       fx="87.343002"
       fy="123.66553"
       r="7.6622667" /><radialGradient
       inkscape:collect="always"
       xlink:href="#linearGradient2296"
       id="radialGradient2298"
       cx="97.479523"
       cy="121.30035"
       fx="97.479523"
       fy="121.30035"
       r="7.6622667"
       gradientUnits="userSpaceOnUse" /><radialGradient
       inkscape:collect="always"
       xlink:href="#linearGradient2270"
       id="radialGradient2873"
       gradientUnits="userSpaceOnUse"
       cx="132.11263"
       cy="105.41981"
       fx="132.11263"
       fy="105.41981"
       r="15.373719"
       gradientTransform="matrix(0.68627892,0,0,0.68627892,-23.262943,64.977527)" /><radialGradient
       inkscape:collect="always"
       xlink:href="#linearGradient1181"
       id="radialGradient2883"
       gradientUnits="userSpaceOnUse"
       gradientTransform="matrix(0.59400907,0,0,0.59400907,1.2004235,83.976013)"
       cx="132.11263"
       cy="105.41981"
       fx="132.11263"
       fy="105.41981"
       r="15.373719" /><radialGradient
       inkscape:collect="always"
       xlink:href="#linearGradient4827"
       id="radialGradient4831"
       cx="92.504036"
       cy="139.3154"
       fx="92.504036"
       fy="139.3154"
       r="12.319112"
       gradientUnits="userSpaceOnUse" /><radialGradient
       inkscape:collect="always"
       xlink:href="#linearGradient2296"
       id="radialGradient4835"
       gradientUnits="userSpaceOnUse"
       cx="97.479523"
       cy="121.30035"
       fx="97.479523"
       fy="121.30035"
       r="7.6622667"
       gradientTransform="matrix(1.2650417,0,0,1.2650417,-16.159714,-4.0762144)" /><radialGradient
       inkscape:collect="always"
       xlink:href="#linearGradient2270"
       id="radialGradient6499"
       gradientUnits="userSpaceOnUse"
       gradientTransform="matrix(0.68627892,0,0,0.68627892,24.998905,66.291587)"
       cx="132.11263"
       cy="105.41981"
       fx="132.11263"
       fy="105.41981"
       r="15.373719" /><radialGradient
       inkscape:collect="always"
       xlink:href="#linearGradient4827"
       id="radialGradient7617"
       gradientUnits="userSpaceOnUse"
       gradientTransform="translate(17.898507,42.136884)"
       cx="110.65699"
       cy="104.74403"
       fx="110.65699"
       fy="104.74403"
       r="11.319112" /><radialGradient
       inkscape:collect="always"
       xlink:href="#linearGradient1181"
       id="radialGradient8382"
       gradientUnits="userSpaceOnUse"
       gradientTransform="matrix(0.59400907,0,0,0.59400907,64.633693,78.600313)"
       cx="132.11263"
       cy="105.41981"
       fx="132.11263"
       fy="105.41981"
       r="15.373719" /></defs><g
     inkscape:label="Calque 1"
     inkscape:groupmode="layer"
     id="layer1"
     transform="translate(-52.221251,-77.128726)"><g
       id="circle11550"
       style="fill:#ffffff"><path
         style="color:#000000;fill:#ffffff;stroke-width:8;stroke-linecap:round;stroke-linejoin:round;-inkscape-stroke:none"
         d="m 123.7224,81.129121 c -0.17133,-0.04801 -3.83388,5.067998 -4.00285,5.123718 -0.16327,0.05385 -5.91674,-1.964175 -6.01204,-1.821077 -0.0986,0.148093 3.63518,5.21193 3.63596,5.389852 7.5e-4,0.171919 -3.6966,5.020369 -3.58997,5.155239 0.11037,0.13955 6.08028,-1.84686 6.24975,-1.79265 0.16373,0.0524 3.63238,5.067197 3.79357,5.007437 0.16686,-0.0618 0.12239,-6.353397 0.22634,-6.497787 0.10044,-0.13953 5.94152,-1.889089 5.93452,-2.060858 -0.007,-0.177771 -6.00448,-2.079657 -6.1097,-2.22312 -0.10165,-0.138633 0.0399,-6.234354 -0.12558,-6.280754 z m -27.998804,3.830257 a 15.373719,15.373719 0 0 0 -14.50144,10.301182 11.319112,11.319112 0 0 0 -5.94021,-1.685167 11.319112,11.319112 0 0 0 -4.1522,0.78961 c -0.08919,-0.15098 -0.14192,-0.2493 -0.14108,-0.27078 0.0069,-0.17178 3.91533,-4.852008 3.81476,-4.991429 -0.1041,-0.144287 -6.15624,1.576299 -6.32313,1.514639 -0.16125,-0.0596 -3.40511,-5.222809 -3.56878,-5.170229 -0.1694,0.05442 -0.40291,6.341599 -0.51314,6.481259 -0.10651,0.13495 -6.01922,1.62436 -6.01979,1.79627 -6e-4,0.17792 5.90652,2.343327 6.00532,2.491317 0.09394,0.14077 -0.30255,6.03804 -0.15917,6.27353 a 11.319112,11.319112 0 0 0 -0.262,2.4045 11.319112,11.319112 0 0 0 11.31921,11.31921 11.319112,11.319112 0 0 0 9.46816,-5.12734 15.373719,15.373719 0 0 0 10.97349,4.62091 15.373719,15.373719 0 0 0 6.857984,-1.61489 11.319112,11.319112 0 0 0 11.04997,8.87904 11.319112,11.319112 0 0 0 1.59938,-0.11627 c 1.07971,1.25433 2.21276,2.55354 2.22209,2.64532 0.0134,0.13132 -1.87182,3.21081 -2.69596,4.69325 a 6.6622667,6.6622667 0 0 0 0.13074,-1.30948 6.6622667,6.6622667 0 0 0 -6.66212,-6.66212 6.6622667,6.6622667 0 0 0 -2.70733,0.57981 6.6622667,6.6622667 0 0 0 -6.584614,-5.64772 6.6622667,6.6622667 0 0 0 -5.82859,3.44268 6.6622667,6.6622667 0 0 0 -3.63234,-1.07797 6.6622667,6.6622667 0 0 0 -6.66212,6.66264 6.6622667,6.6622667 0 0 0 6.66212,6.66213 6.6622667,6.6622667 0 0 0 5.83014,-3.44578 6.6622667,6.6622667 0 0 0 3.63079,1.08054 6.6622667,6.6622667 0 0 0 2.707844,-0.5798 6.6622667,6.6622667 0 0 0 6.5841,5.64823 6.6622667,6.6622667 0 0 0 6.33449,-4.60024 c 0.99171,-0.30444 5.7085,-2.3909 5.86579,-2.35695 0.16804,0.0363 4.1066,4.69083 4.26124,4.61573 0.16004,-0.0777 -0.49412,-6.33522 -0.40462,-6.48901 0.0448,-0.0771 1.58091,-0.73349 3.04942,-1.37252 a 15.373719,15.373719 0 0 0 8.43101,2.52698 15.373719,15.373719 0 0 0 15.37374,-15.37374 15.373719,15.373719 0 0 0 -15.37374,-15.37374 15.373719,15.373719 0 0 0 -13.22606,7.54734 11.319112,11.319112 0 0 0 -8.9054,-4.3372 11.319112,11.319112 0 0 0 -2.53783,0.28887 15.373719,15.373719 0 0 0 0.004,-0.28887 A 15.373719,15.373719 0 0 0 95.723986,84.959378 Z M 70.737006,118.9971 c -0.0029,-4.5e-4 -0.0052,-4.5e-4 -0.0067,5.1e-4 -0.10255,0.0639 0.78382,4.24302 0.73432,4.35323 -0.04781,0.10649 -3.69506,2.06589 -3.66696,2.17919 0.02904,0.11726 4.27716,0.56536 4.36666,0.64647 0.0865,0.0784 0.82304,4.15298 0.93948,4.16098 0.12051,0.009 1.85994,-3.89314 1.96474,-3.95324 0.10127,-0.058 4.20338,0.50039 4.24728,0.39223 0.04543,-0.11194 -3.12798,-2.97149 -3.15278,-3.08974 -0.02391,-0.11425 1.77499,-3.84293 1.68569,-3.9181 -0.09243,-0.0778 -3.79283,2.05627 -3.91294,2.04328 -0.11423,-0.0124 -3.01367,-2.78697 -3.19877,-2.81481 z m 49.175814,2.06705 c -0.23893,0.38288 -0.40692,0.63824 -0.4408,0.65319 -0.0265,0.0117 -0.22616,-0.0216 -0.524,-0.0811 a 11.319112,11.319112 0 0 0 0.9648,-0.57206 z m 3.68969,0.82683 a 15.373719,15.373719 0 0 0 0.60824,0.73432 c -0.29937,-0.077 -0.49749,-0.13394 -0.51728,-0.15606 -0.0205,-0.023 -0.0524,-0.24227 -0.091,-0.57826 z m -53.661844,9.68105 a 10.550659,10.550659 0 0 0 -10.55077,10.55078 10.550659,10.550659 0 0 0 2.47478,6.77943 c 0.05669,1.8904 0.21632,4.84319 0.1509,4.94544 -0.09264,0.14482 -5.82897,2.21219 -5.81257,2.38331 0.01701,0.17711 6.10944,1.74714 6.22236,1.88464 0.10911,0.13286 0.30243,6.22744 0.47026,6.26474 0.1737,0.0386 3.54987,-5.27069 3.71553,-5.33559 0.16007,-0.0627 6.0162,1.63689 6.1035,1.48879 0.09034,-0.15328 -3.91587,-5.0045 -3.92637,-5.18211 -0.0051,-0.0859 0.85015,-1.39211 1.69189,-2.69182 a 10.550659,10.550659 0 0 0 2.40812,-0.40618 9.1321287,9.1321287 0 0 0 8.99841,7.60264 9.1321287,9.1321287 0 0 0 8.05119,-4.824 11.319112,11.319112 0 0 0 5.41621,1.38803 11.319112,11.319112 0 0 0 5.528864,-1.44746 8.4280453,8.4280453 0 0 0 8.0853,6.06113 8.4280453,8.4280453 0 0 0 8.32042,-7.08949 10.550659,10.550659 0 0 0 0.91364,0.0434 10.550659,10.550659 0 0 0 1.78387,-0.15296 11.319112,11.319112 0 0 0 11.20603,9.75289 11.319112,11.319112 0 0 0 11.18743,-9.59993 9.1321287,9.1321287 0 0 0 2.94039,0.49248 9.1321287,9.1321287 0 0 0 9.13174,-9.13175 9.1321287,9.1321287 0 0 0 -9.13174,-9.13225 9.1321287,9.1321287 0 0 0 -8.62996,6.16396 11.319112,11.319112 0 0 0 -5.49786,-1.43092 11.319112,11.319112 0 0 0 -2.66392,0.32246 10.550659,10.550659 0 0 0 -10.32598,-8.38553 10.550659,10.550659 0 0 0 -10.55078,10.55077 10.550659,10.550659 0 0 0 0.0357,0.83923 8.4280453,8.4280453 0 0 0 -1.02991,0.22944 11.319112,11.319112 0 0 0 -11.303194,-10.72389 11.319112,11.319112 0 0 0 -10.87169,8.1902 9.1321287,9.1321287 0 0 0 -2.59571,-0.38034 9.1321287,9.1321287 0 0 0 -1.41076,0.11162 10.550659,10.550659 0 0 0 -10.53528,-10.13117 z m -4.38267,20.14193 a 10.550659,10.550659 0 0 0 0.77256,0.31574 c -0.21487,0.0727 -0.35834,0.11582 -0.38241,0.10955 -0.02953,-0.008 -0.17549,-0.17075 -0.39015,-0.42529 z"
         id="path12497" /><path
         style="color:#000000;fill:#ffffff;stroke-linecap:round;stroke-linejoin:round;-inkscape-stroke:none"
         d="m 123.87695,77.132812 c -0.27619,-0.01088 -0.51572,0.0057 -0.72265,0.03516 -0.41386,0.05884 -0.69834,0.157953 -0.91992,0.246093 -0.44317,0.176282 -0.65223,0.323317 -0.81446,0.435547 -0.32446,0.224461 -0.43525,0.343647 -0.53906,0.44336 -0.20761,0.199424 -0.29955,0.30895 -0.40039,0.425781 -0.20169,0.233662 -0.37928,0.458665 -0.58399,0.720703 -0.40941,0.524076 -0.89581,1.171079 -1.3789,1.816406 -0.0982,0.131167 -0.16888,0.226084 -0.26563,0.355469 -0.11803,-0.03858 -0.2031,-0.06659 -0.32226,-0.105469 -0.74188,-0.242074 -1.4868,-0.482511 -2.10547,-0.669922 -0.30934,-0.0937 -0.57646,-0.172013 -0.875,-0.246093 -0.14927,-0.03704 -0.28649,-0.07581 -0.58399,-0.119141 -0.14875,-0.02167 -0.31684,-0.05679 -0.74414,-0.04492 -0.21364,0.0059 -0.49282,0.01008 -1,0.154297 -0.25359,0.07211 -0.57066,0.179993 -0.96484,0.416016 -0.19709,0.118011 -0.63227,0.47021 -0.63281,0.470703 -5.5e-4,4.93e-4 -0.64416,0.747488 -0.64453,0.748047 -3.9e-4,5.78e-4 -0.33007,0.574654 -0.42578,0.833984 -0.0957,0.25933 -0.15154,0.493311 -0.1875,0.699219 -0.0719,0.411815 -0.0661,0.713181 -0.0508,0.951172 0.0307,0.475981 0.1055,0.719226 0.16211,0.908203 0.11323,0.377953 0.1931,0.520853 0.25586,0.65039 0.12552,0.259075 0.2013,0.38167 0.28125,0.513672 0.15991,0.264006 0.31796,0.501701 0.50391,0.777344 0.37191,0.551287 0.83633,1.212283 1.30078,1.871094 0.0948,0.134503 0.1623,0.232678 0.25586,0.365234 -0.0729,0.100035 -0.12564,0.17243 -0.19922,0.273438 -0.0416,0.0571 -0.0757,0.105046 -0.11719,0.162109 -3.42282,-5.526752 -9.49285,-9.261725 -16.433591,-9.261719 h -0.002 a 4.0004,4.0004 0 0 0 -0.002,0 c -6.751654,0.005 -12.760469,3.642529 -16.248047,9.203125 -0.26222,-0.07463 -0.542677,-0.05663 -0.808594,-0.117187 0.04761,-0.171075 0.100642,-0.285038 0.126954,-0.607422 0.02145,-0.262783 0.03197,-0.59879 -0.05078,-1.050781 -0.04137,-0.225996 -0.218479,-0.75713 -0.21875,-0.757813 -2.71e-4,-6.82e-4 -0.474216,-0.86469 -0.474609,-0.865234 a 4.0004,4.0004 0 0 0 0,-0.002 c -4.07e-4,-5.64e-4 -0.421567,-0.508851 -0.630859,-0.689453 -0.209292,-0.180603 -0.409626,-0.315965 -0.589844,-0.421875 -0.360437,-0.211822 -0.644781,-0.311765 -0.873047,-0.38086 -0.456531,-0.13819 -0.711373,-0.152749 -0.908203,-0.166015 -0.393661,-0.02653 -0.555898,-0.0036 -0.699219,0.0098 -0.286642,0.02667 -0.426461,0.05541 -0.578125,0.08398 -0.303328,0.05715 -0.580924,0.121753 -0.904297,0.199218 -0.646746,0.15493 -1.42907,0.35861 -2.208984,0.5625 -0.159056,0.04158 -0.274845,0.07025 -0.431641,0.111328 -0.06786,-0.103048 -0.117,-0.177278 -0.185547,-0.28125 -0.42957,-0.651574 -0.863236,-1.303897 -1.230468,-1.835937 -0.183617,-0.26602 -0.341918,-0.494358 -0.529297,-0.738281 -0.09369,-0.121962 -0.177111,-0.235863 -0.382813,-0.455078 -0.102851,-0.109608 -0.213065,-0.243094 -0.554687,-0.5 -0.170811,-0.128453 -0.390342,-0.298788 -0.876953,-0.501954 -0.243306,-0.101582 -0.560172,-0.214453 -1.015625,-0.27539 -0.227727,-0.03047 -0.78833,-0.02739 -0.789063,-0.02734 -7.33e-4,4.7e-5 -0.970064,0.183388 -0.970703,0.183594 -6.62e-4,2.12e-4 -0.613179,0.245442 -0.849609,0.388672 -0.236431,0.14323 -0.427564,0.29102 -0.583985,0.429687 -0.312842,0.277335 -0.496551,0.517139 -0.632812,0.712891 -0.272523,0.391504 -0.364053,0.627431 -0.4375,0.810547 -0.146894,0.366231 -0.175428,0.527528 -0.207032,0.667968 -0.06321,0.280882 -0.07797,0.423099 -0.09766,0.576172 -0.03937,0.306148 -0.06556,0.592361 -0.0918,0.923828 -0.05248,0.662935 -0.101382,1.468746 -0.148437,2.273438 -0.0096,0.164379 -0.016,0.283248 -0.02539,0.445312 -0.119426,0.03282 -0.205644,0.05666 -0.326172,0.08984 -0.752402,0.207179 -1.507487,0.414775 -2.126953,0.59961 -0.309733,0.09242 -0.575344,0.174515 -0.865234,0.277343 -0.144945,0.05142 -0.278718,0.09671 -0.550781,0.22461 -0.136032,0.06395 -0.29657,0.125568 -0.646485,0.371093 -0.174957,0.122763 -0.406402,0.279661 -0.75,0.679688 -0.171798,0.200013 -0.375528,0.466527 -0.574219,0.880859 -0.09934,0.207166 -0.269349,0.741476 -0.269531,0.742188 -1.82e-4,7.11e-4 -0.124998,0.977844 -0.125,0.978515 -2e-6,6.95e-4 0.04232,0.660566 0.105469,0.929688 0.06315,0.269122 0.144983,0.495884 0.228516,0.6875 0.167065,0.383233 0.338373,0.632181 0.482421,0.822266 0.288097,0.380169 0.485277,0.541526 0.636719,0.667968 0.302885,0.252886 0.448475,0.328883 0.572266,0.402344 0.247582,0.146923 0.378087,0.205451 0.517578,0.271484 0.278983,0.132067 0.540531,0.243687 0.847656,0.371094 0.614251,0.254814 1.366441,0.550274 2.117188,0.84375 0.152741,0.05971 0.263429,0.10332 0.414062,0.16211 -0.0045,0.09792 -0.0072,0.166905 -0.01172,0.265625 -0.035,0.766545 -0.06884,1.542354 -0.08594,2.189454 -0.0085,0.32355 -0.01269,0.60736 -0.0078,0.90039 0.0018,0.1057 0.0092,0.23596 0.01758,0.36914 -0.117084,0.76194 -0.248853,1.52312 -0.25,2.29492 a 4.0004,4.0004 0 0 0 0,0.006 c -4.7e-5,5.34607 2.800366,10.06489 6.992187,12.8086 -0.117336,0.34514 -0.172431,0.60534 -0.195312,0.77343 -0.05258,0.38629 -0.04048,0.54191 -0.03711,0.67774 0.0067,0.27165 0.02424,0.39087 0.03906,0.51562 0.02964,0.2495 0.06425,0.45281 0.103515,0.68555 0.04788,0.28383 0.111653,0.62009 0.171875,0.94336 -0.248054,0.14187 -0.510758,0.29052 -0.728515,0.41992 -0.197807,0.11755 -0.369902,0.21953 -0.580078,0.35938 -0.105088,0.0699 -0.206931,0.13381 -0.427735,0.31445 -0.110402,0.0903 -0.244805,0.1857 -0.521484,0.50586 -0.13834,0.16008 -0.323486,0.36731 -0.558594,0.83789 -0.117554,0.23529 -0.341571,0.99108 -0.341797,0.99219 -2.25e-4,0.001 0.03689,1.76278 0.03711,1.76367 h -0.002 c 1.14e-4,4.6e-4 0.329837,0.87453 0.330079,0.875 2.41e-4,4.7e-4 0.261119,0.4441 0.388671,0.60937 0.184016,0.23844 0.33103,0.35794 0.480469,0.49024 -5.630585,2.01384 -9.722728,7.36538 -9.722656,13.65625 a 4.0004,4.0004 0 0 0 0,0.004 c 0.0027,2.81072 0.997061,5.45163 2.509766,7.79102 0.01599,0.42724 0.03128,0.82955 0.04883,1.25586 -0.116654,0.0449 -0.200619,0.0777 -0.31836,0.12304 -0.728214,0.28064 -1.458506,0.56336 -2.05664,0.8086 -0.299068,0.12262 -0.55571,0.23032 -0.833985,0.36133 -0.139137,0.0655 -0.269315,0.12318 -0.527343,0.27734 -0.129015,0.0771 -0.281638,0.15474 -0.605469,0.43359 -0.161916,0.13943 -0.375443,0.3181 -0.677735,0.75 -0.151145,0.21596 -0.329567,0.50177 -0.486328,0.9336 -0.07838,0.21591 -0.195201,0.76294 -0.195312,0.76367 -1.11e-4,7.3e-4 -0.02741,0.98761 -0.02734,0.98828 6.7e-5,6.9e-4 0.107798,0.65251 0.197266,0.91406 0.08947,0.26156 0.194788,0.4797 0.296875,0.66211 0.204173,0.36483 0.398388,0.59463 0.560547,0.76953 0.324317,0.34981 0.535999,0.49073 0.699218,0.60157 0.32644,0.22167 0.478916,0.2829 0.609375,0.34375 0.260918,0.1217 0.395672,0.1688 0.541016,0.2207 0.290689,0.1038 0.564585,0.18682 0.882812,0.2832 0.636455,0.19276 1.413352,0.41314 2.189454,0.63086 0.158555,0.0445 0.273346,0.0773 0.429687,0.1211 0.0066,0.12366 0.01088,0.21307 0.01758,0.33789 0.04184,0.77931 0.08443,1.56041 0.132813,2.20507 0.02419,0.32234 0.04734,0.59915 0.08594,0.9043 0.0193,0.15258 0.03468,0.29484 0.101563,0.58789 0.03344,0.14653 0.06143,0.31482 0.226562,0.70899 0.08257,0.19708 0.184623,0.456 0.501953,0.87695 0.158666,0.21048 0.376072,0.46943 0.738282,0.75195 0.181105,0.14126 0.665359,0.4196 0.666015,0.41992 6.57e-4,3.3e-4 0.929032,0.33189 0.929688,0.33204 6.78e-4,1.5e-4 0.655194,0.0999 0.93164,0.0957 0.276447,-0.004 0.515618,-0.0355 0.720703,-0.0762 0.410171,-0.0814 0.689733,-0.19671 0.90625,-0.29688 0.433036,-0.20034 0.631217,-0.35752 0.78711,-0.47851 0.311787,-0.24199 0.41742,-0.36738 0.515625,-0.47266 0.19641,-0.21056 0.282665,-0.32702 0.376953,-0.44922 0.188575,-0.2444 0.35295,-0.47712 0.542969,-0.75 0.380037,-0.54576 0.830409,-1.21781 1.277343,-1.88867 0.09078,-0.13627 0.156652,-0.23473 0.246094,-0.36914 0.119996,0.032 0.206985,0.0536 0.328125,0.0859 0.754114,0.20104 1.510603,0.40147 2.138672,0.55468 0.314035,0.0766 0.584571,0.14163 0.886719,0.19922 0.151074,0.0288 0.290447,0.059 0.589844,0.0859 0.149698,0.0135 0.318176,0.0392 0.74414,0.004 0.212983,-0.0176 0.491721,-0.0372 0.990235,-0.20899 0.249257,-0.0859 0.560721,-0.21146 0.941406,-0.46875 0.190342,-0.12864 0.606905,-0.50338 0.607422,-0.5039 5.16e-4,-5.3e-4 0.601221,-0.78263 0.601562,-0.78321 7.1e-5,-1.2e-4 0.05637,-0.13152 0.07617,-0.17187 1.742638,0.85186 3.610506,1.46183 5.648438,1.46289 a 4.0004,4.0004 0 0 0 0.002,0 c 3.602783,-3.5e-4 6.991396,-1.49187 9.43164,-4.01172 1.311405,0.36051 2.66076,0.57438 4.03125,0.57617 a 4.0004,4.0004 0 0 0 0.0078,0 c 1.236849,-0.001 2.459094,-0.17886 3.65039,-0.47265 2.297498,3.10379 5.945608,5.08424 9.958988,5.08593 a 4.0004,4.0004 0 0 0 0.002,0 c 3.79476,-2.9e-4 7.11998,-1.86446 9.42188,-4.63281 2.74516,4.28951 7.44452,7.18551 12.80078,7.1875 6.14998,-2e-4 11.5354,-3.72792 13.94726,-9.13672 0.0591,9.2e-4 0.11468,0.0292 0.17383,0.0293 a 4.0004,4.0004 0 0 0 0.008,0 c 7.20487,-3.1e-4 13.13056,-5.92794 13.13086,-13.13281 1e-4,-7.20515 -5.92571,-13.13056 -13.13086,-13.13086 a 4.0004,4.0004 0 0 0 -0.004,0 c -4.17047,0.003 -8.00751,1.99902 -10.44532,5.20507 -1.19899,-0.29795 -2.4305,-0.47146 -3.67578,-0.47265 a 4.0004,4.0004 0 0 0 -0.01,0 c -0.0454,7e-5 -0.0894,0.0152 -0.13477,0.0156 -0.63277,-1.24947 -1.44037,-2.33554 -2.38476,-3.33984 0.004,-0.0449 0.0262,-0.14538 0.0293,-0.18359 0.023,-0.28698 0.0177,-0.42967 0.0156,-0.58399 -0.004,-0.30863 -0.0184,-0.59392 -0.0391,-0.92578 -0.0302,-0.48354 -0.0801,-1.07774 -0.12695,-1.65625 2.30221,0.93648 4.70624,1.59347 7.21485,1.5957 a 4.0004,4.0004 0 0 0 0.004,0 c 10.65244,2e-5 19.37306,-8.72256 19.37305,-19.375 1e-5,-10.65244 -8.72061,-19.373058 -19.37305,-19.373043 a 4.0004,4.0004 0 0 0 -0.002,0 c -2.762,0.0012 -5.38142,0.730183 -7.82617,1.822265 0.002,-0.133236 0.002,-0.229852 0.004,-0.361328 0.11796,-0.0381 0.20322,-0.06499 0.32227,-0.103515 0.74251,-0.240265 1.48697,-0.4813 2.09765,-0.69336 0.30535,-0.106029 0.56652,-0.198905 0.85157,-0.314453 0.14252,-0.05777 0.27685,-0.108259 0.54297,-0.248047 0.13305,-0.06989 0.28829,-0.141639 0.62695,-0.402343 0.16933,-0.130353 0.39322,-0.296222 0.71875,-0.710938 0.16277,-0.207358 0.35691,-0.48169 0.53711,-0.904297 0.0901,-0.211303 0.23618,-0.751234 0.23633,-0.751953 1.5e-4,-7.15e-4 0.0811,-0.966374 0.082,-0.978516 v -0.002 c -3.2e-4,-0.0034 -0.0719,-0.657873 -0.14649,-0.923828 -0.0747,-0.266503 -0.16593,-0.489612 -0.25781,-0.677734 -0.18376,-0.376244 -0.36513,-0.618814 -0.51758,-0.802735 -0.30489,-0.36784 -0.51091,-0.518851 -0.66797,-0.638671 -0.31411,-0.239641 -0.46087,-0.310927 -0.58789,-0.378907 -0.25402,-0.135958 -0.38698,-0.18823 -0.52929,-0.248047 -0.28463,-0.119633 -0.55276,-0.218333 -0.86524,-0.332031 -0.62495,-0.227396 -1.38931,-0.49003 -2.15234,-0.75 -0.15567,-0.05304 -0.26837,-0.09232 -0.42188,-0.144531 2.3e-4,-0.123736 -1.6e-4,-0.212999 0,-0.337891 0.001,-0.780392 0.001,-1.562686 -0.0117,-2.208984 -0.006,-0.323149 -0.0134,-0.601429 -0.0352,-0.908203 -0.0109,-0.153387 -0.0177,-0.295544 -0.0684,-0.591797 -0.0253,-0.148126 -0.0443,-0.318053 -0.1875,-0.720703 -0.0716,-0.201325 -0.16128,-0.466458 -0.45508,-0.904297 -0.1469,-0.218919 -0.34901,-0.486996 -0.69531,-0.789063 -0.17315,-0.151033 -0.64194,-0.456666 -0.64258,-0.457031 -6.4e-4,-3.65e-4 -0.90951,-0.382631 -0.91016,-0.382812 a 4.0004,4.0004 0 0 0 -0.002,0 c -6.7e-4,-1.88e-4 -0.64763,-0.133648 -0.92383,-0.144532 z m -3.94336,5.019532 c 0.0245,0.0031 0.0174,0.01081 0.0371,0.01563 -0.0147,-0.0046 -0.0182,-0.005 -0.0332,-0.0098 -0.003,-9.88e-4 -0.009,-0.0029 -0.0117,-0.0039 0.001,1.39e-4 0.007,-0.0021 0.008,-0.002 z m -2.76171,0.894531 c -0.021,0.02751 -0.0289,0.03653 -0.0488,0.0625 0.0177,-0.02448 0.0171,-0.03366 0.0488,-0.0625 z m 8.86328,0.921875 c 0.0288,0.0092 0.0368,0.006 0.0742,0.02734 -0.0326,-0.01143 -0.0434,-0.01647 -0.0742,-0.02734 z m 1.77343,2.367187 c 0.006,0.03254 -0.001,0.0349 0,0.06055 -1.4e-4,-0.01984 1.3e-4,-0.02453 0,-0.04492 -2e-5,-0.0041 3e-5,-0.01148 0,-0.01563 z m -59.33984,0.183594 c 0.0023,-1.7e-4 0.01332,0.0041 0.01563,0.0039 -0.03311,0.0084 -0.04482,0.0097 -0.07617,0.01758 0.02751,-0.0077 0.02086,-0.01849 0.06055,-0.02148 z m 2.724609,1.017578 c 0.02391,0.0242 0.01796,0.03148 0.0332,0.05273 -0.01147,-0.01708 -0.01361,-0.02148 -0.02539,-0.03906 -0.0023,-0.0034 -0.0055,-0.01021 -0.0078,-0.01367 z m 42.347661,0.779297 c -0.0105,0.01463 -0.0127,0.01823 -0.0234,0.0332 -0.002,0.0033 -0.007,0.0084 -0.01,0.01172 0.0128,-0.02753 0.0202,-0.02478 0.0332,-0.04492 z m -51.193364,0.06836 c -0.01143,0.0032 -0.01377,0.0045 -0.02539,0.0078 -0.0031,8.87e-4 -0.0086,0.003 -0.01172,0.0039 0.01866,-0.0093 0.02059,-0.0053 0.03711,-0.01172 z m 33.375,0.574218 h 0.0039 c 6.327978,0.0011 11.371108,5.046754 11.371098,11.374996 -4e-4,0.0648 -4.5e-4,0.13057 -0.002,0.19532 a 4.0004,4.0004 0 0 0 4.89649,3.99023 c 0.53757,-0.12383 1.08702,-0.18525 1.63867,-0.18555 2.25144,7.8e-4 4.36907,1.03063 5.75781,2.80274 a 4.0004,4.0004 0 0 0 6.5918,-0.42969 c 2.04876,-3.46396 5.75882,-5.58161 9.7832,-5.58398 6.32892,-1e-5 11.37306,5.04413 11.37305,11.37304 1e-5,6.32825 -5.04312,11.37395 -11.3711,11.375 -2.21723,-0.002 -4.38354,-0.65318 -6.23632,-1.87109 a 4.0004,4.0004 0 0 0 -1.74414,-0.14844 4.0004,4.0004 0 0 0 -0.57422,-1.87304 c -0.15558,-0.1764 -0.30683,-0.35728 -0.45117,-0.54297 a 4.0004,4.0004 0 0 0 -3.15821,-1.54492 4.0004,4.0004 0 0 0 -1.55664,0.69726 4.0004,4.0004 0 0 0 -2.3125,-0.875 4.0004,4.0004 0 0 0 -0.0469,0.0176 c 0.0112,9.3e-4 0.039,0.001 0.0488,0.002 l 0.42578,2.93555 a 4.0004,4.0004 0 0 0 -0.41211,1.30273 c -0.43378,-0.50932 -0.96749,-1.12186 -1.48633,-1.72461 a 4.0004,4.0004 0 0 0 -1.58984,-0.5957 l 0.51562,-0.96094 a 4.0004,4.0004 0 0 0 -0.45312,0.17578 c 0.0355,-0.0748 0.39636,-0.27126 0.58593,-0.42187 l 0.38477,-0.71484 c -0.20171,0.13353 -0.41107,0.25817 -0.625,0.37109 a 4.0004,4.0004 0 0 0 -0.39844,0.78516 4.0004,4.0004 0 0 0 -0.16211,0.0625 c -0.108,0.17307 -0.19724,0.31171 -0.22656,0.35546 -0.0147,0.0219 -0.0212,0.0249 0.0391,-0.0547 0.0301,-0.0398 0.0713,-0.0976 0.19531,-0.23438 0.0129,-0.0143 0.12978,-0.0832 0.13868,-0.0996 a 4.0004,4.0004 0 0 0 -0.31446,0.61719 4.0004,4.0004 0 0 0 -1.69336,-0.63477 c -0.33994,0.0491 -0.68193,0.0733 -1.02539,0.0742 -6.6e-4,0 -0.001,0 -0.002,0 -3.45545,-0.002 -6.39764,-2.36583 -7.14258,-5.74023 a 4.0004,4.0004 0 0 0 -5.6914,-2.71875 c -1.574865,0.78509 -3.310651,1.19459 -5.070318,1.19531 -3.05709,-0.003 -5.978973,-1.23305 -8.117187,-3.41797 a 4.0004,4.0004 0 0 0 -6.207031,0.60938 c -1.35311,2.0707 -3.647582,3.3122 -6.121094,3.31445 -4.087651,4e-5 -7.315224,-3.22569 -7.318359,-7.3125 v -0.004 c -10e-7,-6.7e-4 0,-0.001 0,-0.002 0.0012,-0.52087 0.0585,-1.04 0.169921,-1.54883 a 4.0004,4.0004 0 0 0 0.04687,-1.37109 c 9.46e-4,0.0107 0.007,0.0438 0.0078,0.0527 0.0099,0.11166 0.0065,0.10201 0.0059,0.0645 -0.0012,-0.0751 8.21e-4,-0.29201 0.0078,-0.55664 0.01398,-0.52928 0.04562,-1.28036 0.08008,-2.03516 0.03446,-0.754803 0.07069,-1.514974 0.09375,-2.126953 0.01024,-0.271755 0.01827,-0.502198 0.02148,-0.728516 a 4.0004,4.0004 0 0 0 4.201172,1.441406 c 0.854399,-0.337031 1.765135,-0.509414 2.683594,-0.509765 1.35685,2.35e-4 2.686952,0.377541 3.841797,1.089844 a 4.0004,4.0004 0 0 0 5.875,-2.085938 c 1.598599,-4.573674 5.879918,-7.615865 10.724609,-7.621094 z m -35.216797,1.699219 c -0.0025,0.03663 -0.0035,0.04948 -0.0059,0.08398 8.36e-4,-0.03167 -0.0055,-0.03934 0.0059,-0.08398 z m 53.001951,0.597656 c 0.0188,0.02714 0.0252,0.03674 0.043,0.0625 -0.0173,-0.02399 -0.0259,-0.02457 -0.043,-0.0625 z m 14.46289,1.457032 c -5e-5,0.02969 0.007,0.03521 -0.002,0.07617 7.6e-4,-0.03316 0.001,-0.04475 0.002,-0.07617 z m -1.70312,2.416015 c -0.0273,0.01523 -0.0318,0.0088 -0.0547,0.01758 0.0181,-0.006 0.0224,-0.0075 0.041,-0.01367 0.004,-0.0012 0.0101,-0.0027 0.0137,-0.0039 z m -51.511721,0.59375 c -0.01571,0.03039 -0.02348,0.02768 -0.03906,0.04883 0.01288,-0.01643 0.01601,-0.02022 0.0293,-0.03711 0.0025,-0.0032 0.0073,-0.0085 0.0098,-0.01172 z m 42.642581,0.617188 c 0.009,0.01246 0.0121,0.01462 0.0215,0.02734 0.002,0.003 0.006,0.0087 0.008,0.01172 -0.0195,-0.01815 -0.0153,-0.0225 -0.0293,-0.03906 z M 120.26563,97.25 c -0.0314,0.01149 -0.0382,0.02003 -0.0879,0.02539 0.0382,-0.01147 0.0521,-0.01474 0.0879,-0.02539 z m -58.292974,2.275391 c 0.03665,0.01469 0.04966,0.01935 0.08398,0.0332 -0.03156,-0.01048 -0.04193,-0.0066 -0.08398,-0.0332 z m 6.148438,2.124999 c 0.0011,0.007 0.01815,0.0416 0.01953,0.0488 0.0052,0.0271 0.0019,0.0239 0.0059,0.0469 a 4.0004,4.0004 0 0 0 -0.02539,-0.0957 z m 0.49414,13.95313 c -1e-5,0 -0.0185,0.0148 -0.01953,0.0156 -8.27e-4,3.7e-4 -0.02148,0.01 -0.02148,0.01 z m 13.527344,2.92578 c -0.14313,0.13715 -0.2591,0.28491 -0.394531,0.42968 -0.02448,-0.0929 -0.03978,-0.1347 -0.07422,-0.24414 0.152617,-0.0707 0.318586,-0.10991 0.46875,-0.18554 z m 43.052732,0.24023 c 0.0576,0.0215 0.11417,0.0398 0.25782,0.10938 0.17955,0.087 0.40181,0.009 1.2207,0.92382 l 0.006,0.006 c 0.87626,0.98313 0.74072,1.19991 0.80469,1.39454 0.0475,0.14446 0.0566,0.19425 0.0703,0.2539 l -0.3086,0.34766 a 4.0004,4.0004 0 0 0 -1.50976,-0.12891 c -0.72582,0.31584 -1.4786,0.63926 -2.08203,0.90625 -0.27806,0.12303 -0.5145,0.23054 -0.73828,0.33594 a 4.0004,4.0004 0 0 0 0.99609,-1.85352 4.0004,4.0004 0 0 0 -0.0684,-0.0898 z m -26.261716,2.38477 c 1.342446,-1e-5 2.426426,0.92907 2.630856,2.25586 a 4.0004,4.0004 0 0 0 5.58594,3.04297 c 0.3393,-0.15165 0.70651,-0.22932 1.07813,-0.23047 1.51665,0.001 2.66012,1.14512 2.66015,2.66211 -3.6e-4,0.17441 -0.0183,0.34853 -0.0527,0.51953 a 4.0004,4.0004 0 0 0 0.082,0.14648 4.0004,4.0004 0 0 0 -0.16211,0.1582 c -0.36146,1.11052 -1.36162,1.83696 -2.5293,1.83789 -1.34243,-1e-4 -2.42653,-0.93101 -2.63086,-2.25781 a 4.0004,4.0004 0 0 0 -5.58593,-3.04297 c -0.338655,0.15135 -0.705294,0.22902 -1.076176,0.23047 -0.514014,-0.001 -1.016561,-0.14902 -1.447266,-0.42968 a 4.0004,4.0004 0 0 0 -5.685547,1.41992 c -0.471062,0.85446 -1.352546,1.37563 -2.328125,1.37695 -1.517656,-3e-5 -2.662078,-1.14445 -2.662109,-2.66211 -8.5e-5,-1.51775 1.144363,-2.66403 2.662109,-2.66406 0.515655,8e-5 1.018951,0.15042 1.451172,0.43164 a 4.0004,4.0004 0 0 0 5.683594,-1.41992 c 0.471274,-0.85377 1.351094,-1.37371 2.326172,-1.375 z m 29.374996,6.18359 c 0.004,0.0328 0.0112,0.0408 0.006,0.0898 -0.003,-0.0393 -0.003,-0.053 -0.006,-0.0898 z m -1.45898,2.58008 c -0.0741,0.0518 -0.10362,0.0614 -0.15039,0.0684 0.0584,-0.0262 0.0845,-0.0391 0.15039,-0.0684 z m -46.916016,0.80078 c 0.892529,1.84669 2.339881,3.2985 4.074218,4.375 -0.28355,0.32034 -0.629943,0.57556 -0.886718,0.91992 -0.966523,-2.06792 -2.439418,-3.82808 -4.207032,-5.23242 0.01688,7.8e-4 0.02952,0.003 0.04687,0.004 0.126107,0.005 0.24649,0.0144 0.53125,-0.002 0.08746,-0.005 0.284761,-0.0418 0.441407,-0.0644 z m -7.126953,3.60742 c 7e-6,0 0.01511,2e-5 0.01563,0 7.3e-5,2e-5 0.0078,0.002 0.0078,0.002 z m -2.869141,1.2461 h 0.0039 c 3.554624,0.004 6.395759,2.73671 6.53711,6.28906 a 4.0004,4.0004 0 0 0 4.621093,3.79297 c 0.258404,-0.0408 0.519662,-0.0615 0.78125,-0.0625 0.0013,0 0.0026,-1e-5 0.0039,0 0.492704,0.001 0.98288,0.0722 1.455078,0.21289 a 4.0004,4.0004 0 0 0 4.986328,-2.72657 c 0.906357,-3.15106 3.748694,-5.29416 7.027344,-5.29687 3.932681,9e-5 7.101794,3.00831 7.308594,6.93555 a 4.0004,4.0004 0 0 0 5.10742,3.63086 c 0.17768,-0.0514 0.35831,-0.0923 0.54102,-0.1211 a 4.0004,4.0004 0 0 0 3.36328,-4.27929 c -0.014,-0.16944 -0.0207,-0.33976 -0.0215,-0.50977 v -0.002 c 0.001,-3.66431 2.88619,-6.54887 6.55079,-6.54883 3.12337,4e-5 5.76919,2.14817 6.41015,5.20508 a 4.0004,4.0004 0 0 0 4.86328,3.0664 c 0.56136,-0.13694 1.13704,-0.20741 1.71485,-0.20898 1.24323,0.002 2.46662,0.32071 3.55273,0.92578 a 4.0004,4.0004 0 0 0 5.72852,-2.19531 c 0.71643,-2.08458 2.64356,-3.46054 4.84765,-3.46289 2.88171,1.2e-4 5.1309,2.24915 5.13086,5.13086 -1.2e-4,2.88024 -2.24729,5.13059 -5.12695,5.13281 -0.56097,-0.002 -1.1177,-0.0956 -1.64844,-0.27735 a 4.0004,4.0004 0 0 0 -5.25,3.17774 c -0.55299,3.59868 -3.59172,6.20596 -7.23242,6.20703 -3.67993,-0.001 -6.7369,-2.66211 -7.24609,-6.30664 a 4.0004,4.0004 0 0 0 -4.64063,-3.38867 c -0.36327,0.0625 -0.73101,0.095 -1.09961,0.0957 -0.18547,-0.001 -0.36997,-0.0105 -0.55469,-0.0273 a 4.0004,4.0004 0 0 0 -4.3125,3.34765 c -0.3496,2.17333 -2.1681,3.7235 -4.36914,3.72461 -1.98358,-8.3e-4 -3.69098,-1.27984 -4.24804,-3.18359 a 4.0004,4.0004 0 0 0 -5.796879,-2.36524 c -1.090897,0.61203 -2.319509,0.93181 -3.570312,0.9336 -1.222753,-0.002 -2.425195,-0.30782 -3.498047,-0.89453 a 4.0004,4.0004 0 0 0 -5.447266,1.62109 c -0.896117,1.67488 -2.622064,2.71004 -4.521484,2.71094 -2.528814,-0.001 -4.633104,-1.77839 -5.056641,-4.27149 a 4.0004,4.0004 0 0 0 -5.060547,-3.17187 c -0.486943,0.14165 -0.989627,0.22605 -1.496093,0.25195 a 4.0004,4.0004 0 0 0 -1.345704,0.77735 4.0004,4.0004 0 0 0 -0.271484,-0.25586 c -0.02034,-0.0237 -0.01904,-0.0224 -0.04297,-0.0508 l -0.0039,0.006 a 4.0004,4.0004 0 0 0 -0.916016,-0.87109 c -0.16241,-0.059 -0.321275,-0.12367 -0.478515,-0.19531 a 4.0004,4.0004 0 0 0 -0.652344,0.16406 c 0.173175,0.0227 0.115254,-0.0429 0.392578,0.0293 l 0.03711,0.0117 c 1.246899,0.3378 1.257121,0.58549 1.416015,0.71093 0.113236,0.0894 0.145603,0.12268 0.189453,0.16407 l -0.642578,0.84765 a 4.0004,4.0004 0 0 0 -0.833984,0.48242 c -0.399334,0.61661 -0.799158,1.23165 -1.128906,1.74805 -0.0046,-0.12269 -0.0066,-0.21353 -0.01172,-0.34375 -0.0395,-1.00473 -0.0923,-2.21033 -0.119141,-3.10547 a 4.0004,4.0004 0 0 0 -0.128906,-0.33593 4.0004,4.0004 0 0 0 -0.689453,0.17578 l 0.0039,-0.37305 c 0.02969,-0.008 0.02986,-0.0108 0.107422,-0.0273 0.07326,-0.0156 0.168432,-0.0381 0.375,-0.0605 0.01416,-0.002 0.0832,0.0102 0.09766,0.008 a 4.0004,4.0004 0 0 0 -0.703125,-1.8418 c -0.990756,-1.17847 -1.532778,-2.66555 -1.535156,-4.20507 v -0.002 c -10e-7,-6.5e-4 10e-7,-0.001 0,-0.002 0.0021,-3.66201 2.884862,-6.5448 6.546875,-6.54687 z m -10.308594,14.95117 c -0.01309,0.005 -0.01595,0.006 -0.0293,0.0117 -0.003,0.001 -0.0087,0.003 -0.01172,0.004 0.02011,-0.0127 0.02329,-0.007 0.04102,-0.0156 z m 12.863281,3.12695 c 0.01884,0.0232 0.02745,0.0231 0.04687,0.0606 -0.02051,-0.0264 -0.0275,-0.0355 -0.04687,-0.0606 z m -13.966796,5.68945 c 0.0013,0.0216 0.0025,0.0266 0.0039,0.0488 2.51e-4,0.004 -2.52e-4,0.0115 0,0.0156 -0.0088,-0.0344 -0.0016,-0.0375 -0.0039,-0.0645 z m 1.828125,2.30664 c 0.03759,0.0109 0.0507,0.0151 0.08594,0.0254 -0.03222,-0.007 -0.04196,-0.003 -0.08594,-0.0254 z m 9.021484,0.39454 c -0.01624,0.0252 -0.01312,0.0341 -0.04297,0.0644 0.01896,-0.0279 0.02496,-0.038 0.04297,-0.0644 z m -2.792969,1.09375 c 0.01647,0.004 0.02026,0.005 0.03711,0.01 0.0036,9.4e-4 0.01002,0.003 0.01367,0.004 -0.02836,-0.002 -0.02842,-0.009 -0.05078,-0.0137 z"
         id="path12499" /></g><g
       id="g11548"
       style="stroke-width:0;stroke-dasharray:none"><circle
         style="fill:url(#radialGradient4831);fill-opacity:1;stroke:#ffffff;stroke-width:0;stroke-linecap:round;stroke-linejoin:round;stroke-dasharray:none;stroke-opacity:1"
         id="circle4817"
         cx="95.251617"
         cy="145.28841"
         r="11.319112" /><circle
         style="fill:#ffffff;fill-opacity:1;stroke-width:0;stroke-linecap:round;stroke-linejoin:round;stroke-dasharray:none"
         id="circle4819"
         cx="95.614975"
         cy="143.79691"
         r="6.7576785" /><circle
         style="fill:url(#radialGradient1167);fill-opacity:1;stroke:#ffffff;stroke-width:0;stroke-linecap:round;stroke-linejoin:round;stroke-dasharray:none;stroke-opacity:1"
         id="path300"
         cx="75.179184"
         cy="105.08192"
         r="11.319112" /><circle
         style="fill:url(#radialGradient1175);fill-opacity:1;stroke:#ffffff;stroke-width:0;stroke-linecap:round;stroke-linejoin:round;stroke-dasharray:none;stroke-opacity:1"
         id="circle462"
         cx="95.621155"
         cy="100.52048"
         r="15.373719" /><circle
         style="fill:url(#radialGradient1191);fill-opacity:1;stroke:#ffffff;stroke-width:0;stroke-linecap:round;stroke-linejoin:round;stroke-dasharray:none;stroke-opacity:1"
         id="circle464"
         cx="135.6604"
         cy="112.68431"
         r="15.373719" /><circle
         style="fill:url(#radialGradient1183);fill-opacity:1;stroke:#ffffff;stroke-width:0;stroke-linecap:round;stroke-linejoin:round;stroke-dasharray:none;stroke-opacity:1"
         id="circle460"
         cx="113.529"
         cy="111.8396"
         r="11.319112" /><circle
         style="fill:#ffffff;fill-opacity:1;stroke-width:0;stroke-linecap:round;stroke-linejoin:round;stroke-dasharray:none"
         id="circle1427"
         cx="73.489761"
         cy="105.08192"
         r="6.2508526" /><g
         aria-label="L"
         id="text1294"
         style="font-weight:bold;font-size:7.05556px;line-height:1.25;-inkscape-font-specification:'sans-serif Bold';fill:#5599ff;stroke-width:0;stroke-dasharray:none"
         transform="matrix(0.63593961,-0.27837703,0.27837703,0.63593961,21.003545,63.163182)"><path
           d="M 50.060275,91.059732 H 42.460846 V 80.523838 h 2.717113 v 8.498058 h 4.882316 z"
           id="path1376"
           style="fill:#5599ff;stroke-width:0;stroke-dasharray:none" /></g><circle
         style="fill:#ffffff;fill-opacity:1;stroke-width:0;stroke-linecap:round;stroke-linejoin:round;stroke-dasharray:none"
         id="circle1431"
         cx="93.424911"
         cy="102.88567"
         r="10.136518" /><g
         aria-label="O"
         id="text1298"
         style="font-weight:bold;font-size:7.05556px;line-height:1.25;-inkscape-font-specification:'sans-serif Bold';fill:#ff0000;stroke-width:0;stroke-dasharray:none"
         transform="matrix(1.7844888,-1.0588531,1.0588531,1.7844888,-41.493606,-51.352121)"><path
           d="m 20.509964,97.112613 q 0,1.226455 -0.7028,1.949926 -0.7028,0.720025 -1.943035,0.720025 -1.23679,0 -1.93959,-0.720025 -0.7028,-0.723471 -0.7028,-1.949926 0,-1.23679 0.7028,-1.95337 0.7028,-0.720026 1.93959,-0.720026 1.233345,0 1.93959,0.720026 0.706245,0.71658 0.706245,1.95337 z m -1.753555,1.298802 q 0.192926,-0.234267 0.285943,-0.551216 0.09302,-0.320394 0.09302,-0.751031 0,-0.461643 -0.106798,-0.785482 -0.106798,-0.323839 -0.279053,-0.523655 -0.1757,-0.206706 -0.406522,-0.299723 -0.227376,-0.09302 -0.475423,-0.09302 -0.251492,0 -0.475424,0.08957 -0.220486,0.08957 -0.406521,0.296279 -0.172255,0.192925 -0.282498,0.53399 -0.106798,0.33762 -0.106798,0.785482 0,0.458198 0.103353,0.782037 0.106798,0.320395 0.279053,0.523655 0.172255,0.203261 0.403076,0.299724 0.230822,0.09646 0.485759,0.09646 0.254937,0 0.485759,-0.09646 0.230821,-0.09991 0.403076,-0.306614 z"
           id="path1373"
           style="fill:#ff0000;stroke-width:0;stroke-dasharray:none" /></g><circle
         style="fill:#ffffff;fill-opacity:1;stroke-width:0;stroke-linecap:round;stroke-linejoin:round;stroke-dasharray:none"
         id="circle1435"
         cx="116.40102"
         cy="110.82595"
         r="6.7576785" /><g
         aria-label="T"
         id="text1352"
         style="font-weight:bold;font-size:7.05556px;line-height:1.25;-inkscape-font-specification:'sans-serif Bold';fill:#5599ff;fill-opacity:1;stroke-width:0;stroke-dasharray:none"
         transform="matrix(1.3708461,0.81105963,-0.81105963,1.3708461,168.92598,-53.639839)"><path
           d="m 26.799507,103.9853 h -1.601971 v 4.13756 h -1.322917 v -4.13756 h -1.601971 v -0.99219 h 4.526859 z"
           id="path1370"
           style="fill:#5599ff;fill-opacity:1;stroke-width:0;stroke-dasharray:none" /></g><circle
         style="fill:#ffffff;fill-opacity:1;stroke-width:0;stroke-linecap:round;stroke-linejoin:round;stroke-dasharray:none"
         id="circle2198"
         cx="138.53242"
         cy="112.00854"
         r="10.136518" /><g
         aria-label="O"
         id="g2202"
         style="font-weight:bold;font-size:7.05556px;line-height:1.25;-inkscape-font-specification:'sans-serif Bold';fill:#ff0000;stroke-width:0;stroke-dasharray:none"
         transform="matrix(1.7844888,-1.0588531,1.0588531,1.7844888,3.6139026,-42.229254)"><path
           d="m 20.509964,97.112613 q 0,1.226455 -0.7028,1.949926 -0.7028,0.720025 -1.943035,0.720025 -1.23679,0 -1.93959,-0.720025 -0.7028,-0.723471 -0.7028,-1.949926 0,-1.23679 0.7028,-1.95337 0.7028,-0.720026 1.93959,-0.720026 1.233345,0 1.93959,0.720026 0.706245,0.71658 0.706245,1.95337 z m -1.753555,1.298802 q 0.192926,-0.234267 0.285943,-0.551216 0.09302,-0.320394 0.09302,-0.751031 0,-0.461643 -0.106798,-0.785482 -0.106798,-0.323839 -0.279053,-0.523655 -0.1757,-0.206706 -0.406522,-0.299723 -0.227376,-0.09302 -0.475423,-0.09302 -0.251492,0 -0.475424,0.08957 -0.220486,0.08957 -0.406521,0.296279 -0.172255,0.192925 -0.282498,0.53399 -0.106798,0.33762 -0.106798,0.785482 0,0.458198 0.103353,0.782037 0.106798,0.320395 0.279053,0.523655 0.172255,0.203261 0.403076,0.299724 0.230822,0.09646 0.485759,0.09646 0.254937,0 0.485759,-0.09646 0.230821,-0.09991 0.403076,-0.306614 z"
           id="path2200"
           style="fill:#ff0000;stroke-width:0;stroke-dasharray:none" /></g><path
         sodipodi:type="star"
         style="fill:#ffd42a;fill-opacity:1;stroke:#ffffff;stroke-width:0;stroke-linecap:round;stroke-linejoin:round;stroke-dasharray:none;stroke-opacity:1"
         id="path2256"
         inkscape:flatsided="false"
         sodipodi:sides="5"
         sodipodi:cx="53.385662"
         sodipodi:cy="116.40103"
         sodipodi:r1="10.686164"
         sodipodi:r2="4.3448043"
         sodipodi:arg1="0.78539816"
         sodipodi:arg2="1.3772121"
         inkscape:rounded="0.027365551"
         inkscape:randomized="0"
         d="m 60.941921,123.95729 c -0.139429,0.15 -6.518143,-3.32465 -6.720417,-3.29261 -0.209344,0.0332 -5.49502,5.34706 -5.687259,5.25779 -0.185745,-0.0863 1.147711,-7.22649 1.054737,-7.40897 -0.09623,-0.18885 -6.783413,-3.57374 -6.757919,-3.78415 0.02463,-0.20331 7.227467,-1.14157 7.372279,-1.28639 0.149874,-0.14987 1.302641,-7.55575 1.510636,-7.59653 0.200969,-0.0394 3.31911,6.52097 3.501583,6.61394 0.188852,0.0962 7.588489,-1.09597 7.691543,-0.91076 0.09957,0.17896 -5.176145,5.17175 -5.208183,5.37403 -0.03316,0.20934 3.387304,6.87841 3.243,7.03365 z"
         inkscape:transform-center-x="0.75050658"
         inkscape:transform-center-y="-0.11075159"
         transform="matrix(0.83368027,-0.09817522,0.09817522,0.83368027,11.304699,2.4696811)" /><circle
         style="fill:url(#radialGradient6499);fill-opacity:1;stroke:#ffffff;stroke-width:0;stroke-linecap:round;stroke-linejoin:round;stroke-dasharray:none;stroke-opacity:1"
         id="circle6495"
         cx="118.09978"
         cy="143.62445"
         r="10.550659" /><path
         sodipodi:type="star"
         style="fill:#ffd42a;fill-opacity:1;stroke:#ffffff;stroke-width:0;stroke-linecap:round;stroke-linejoin:round;stroke-dasharray:none;stroke-opacity:1"
         id="path2258"
         inkscape:flatsided="false"
         sodipodi:sides="5"
         sodipodi:cx="53.385662"
         sodipodi:cy="116.40103"
         sodipodi:r1="10.686164"
         sodipodi:r2="4.3448043"
         sodipodi:arg1="0.78539816"
         sodipodi:arg2="1.3772121"
         inkscape:rounded="0.027365551"
         inkscape:randomized="0"
         d="m 60.941921,123.95729 c -0.139429,0.15 -6.518143,-3.32465 -6.720417,-3.29261 -0.209344,0.0332 -5.49502,5.34706 -5.687259,5.25779 -0.185745,-0.0863 1.147711,-7.22649 1.054737,-7.40897 -0.09623,-0.18885 -6.783413,-3.57374 -6.757919,-3.78415 0.02463,-0.20331 7.227467,-1.14157 7.372279,-1.28639 0.149874,-0.14987 1.302641,-7.55575 1.510636,-7.59653 0.200969,-0.0394 3.31911,6.52097 3.501583,6.61394 0.188852,0.0962 7.588489,-1.09597 7.691543,-0.91076 0.09957,0.17896 -5.176145,5.17175 -5.208183,5.37403 -0.03316,0.20934 3.387304,6.87841 3.243,7.03365 z"
         inkscape:transform-center-x="-0.58423417"
         inkscape:transform-center-y="-0.28092814"
         transform="matrix(0.78269842,0.30338811,-0.30338811,0.78269842,114.49256,17.882438)" /><path
         sodipodi:type="star"
         style="fill:#ffd42a;fill-opacity:1;stroke:#ffffff;stroke-width:0;stroke-linecap:round;stroke-linejoin:round;stroke-dasharray:none;stroke-opacity:1"
         id="path2260"
         inkscape:flatsided="false"
         sodipodi:sides="5"
         sodipodi:cx="53.385662"
         sodipodi:cy="116.40103"
         sodipodi:r1="10.686164"
         sodipodi:r2="4.3448043"
         sodipodi:arg1="0.78539816"
         sodipodi:arg2="1.3772121"
         inkscape:rounded="0.027365551"
         inkscape:randomized="0"
         d="m 60.941921,123.95729 c -0.139429,0.15 -6.518143,-3.32465 -6.720417,-3.29261 -0.209344,0.0332 -5.49502,5.34706 -5.687259,5.25779 -0.185745,-0.0863 1.147711,-7.22649 1.054737,-7.40897 -0.09623,-0.18885 -6.783413,-3.57374 -6.757919,-3.78415 0.02463,-0.20331 7.227467,-1.14157 7.372279,-1.28639 0.149874,-0.14987 1.302641,-7.55575 1.510636,-7.59653 0.200969,-0.0394 3.31911,6.52097 3.501583,6.61394 0.188852,0.0962 7.588489,-1.09597 7.691543,-0.91076 0.09957,0.17896 -5.176145,5.17175 -5.208183,5.37403 -0.03316,0.20934 3.387304,6.87841 3.243,7.03365 z"
         inkscape:transform-center-x="-0.84376815"
         inkscape:transform-center-y="-0.012646855"
         transform="matrix(0.74960966,0.37781812,-0.37781812,0.74960966,124.84495,-17.565378)" /><circle
         style="fill:url(#radialGradient2298);fill-opacity:1;stroke:#ffffff;stroke-width:0;stroke-linecap:round;stroke-linejoin:round;stroke-dasharray:none;stroke-opacity:1"
         id="circle2278"
         cx="98.831062"
         cy="124.00342"
         r="6.6622667" /><circle
         style="fill:url(#radialGradient2272);fill-opacity:1;stroke:#ffffff;stroke-width:0;stroke-linecap:round;stroke-linejoin:round;stroke-dasharray:none;stroke-opacity:1"
         id="circle2262"
         cx="89.370308"
         cy="126.36861"
         r="6.6622667" /><circle
         style="fill:#ffffff;fill-opacity:1;stroke:none;stroke-width:0;stroke-linecap:round;stroke-linejoin:round;stroke-dasharray:none;stroke-opacity:1"
         id="circle2280"
         cx="99.337891"
         cy="122.82082"
         r="3.3790679" /><circle
         style="fill:#ffffff;fill-opacity:1;stroke:none;stroke-width:0;stroke-linecap:round;stroke-linejoin:round;stroke-dasharray:none;stroke-opacity:1"
         id="circle2274"
         cx="88.356659"
         cy="127.21332"
         r="3.3790679" /><circle
         style="fill:#ffffff;fill-opacity:1;stroke-width:0;stroke-linecap:round;stroke-linejoin:round;stroke-dasharray:none"
         id="circle6497"
         cx="117.9205"
         cy="141.36879"
         r="6.9564781" /><circle
         style="fill:url(#radialGradient2288);fill-opacity:1;stroke:#ffffff;stroke-width:0;stroke-linecap:round;stroke-linejoin:round;stroke-dasharray:none;stroke-opacity:1"
         id="circle2284"
         cx="108.12287"
         cy="129.07167"
         r="6.6622667" /><circle
         style="fill:#ffffff;fill-opacity:1;stroke:none;stroke-width:0;stroke-linecap:round;stroke-linejoin:round;stroke-dasharray:none;stroke-opacity:1"
         id="circle2286"
         cx="108.6297"
         cy="130.25426"
         r="3.3790679" /><g
         aria-label="D"
         id="text2304"
         style="font-weight:bold;font-size:7.05556px;line-height:1.25;-inkscape-font-specification:'sans-serif Bold';fill:#ff00ff;stroke-width:0;stroke-dasharray:none"
         transform="matrix(0.66168074,-0.24931472,0.24931472,0.66168074,49.47322,73.622616)"><path
           d="m 27.295337,90.358383 q 0,0.716581 -0.327284,1.285022 -0.327284,0.564996 -0.826824,0.868164 -0.375515,0.227377 -0.823378,0.316949 -0.447863,0.08957 -1.06109,0.08957 H 22.448085 V 87.78834 h 1.860352 q 0.627008,0 1.081761,0.106798 0.454753,0.103353 0.764812,0.296279 0.530545,0.323839 0.833714,0.875055 0.306613,0.54777 0.306613,1.291911 z m -1.367704,-0.01033 q 0,-0.506429 -0.186035,-0.86472 -0.18259,-0.361735 -0.582221,-0.564996 -0.203261,-0.09991 -0.416857,-0.134358 -0.210151,-0.0379 -0.637343,-0.0379 h -0.334175 v 3.210832 h 0.334175 q 0.471978,0 0.692464,-0.04134 0.220487,-0.04479 0.430638,-0.158474 0.361735,-0.206706 0.530545,-0.551216 0.168809,-0.347955 0.168809,-0.857828 z"
           id="path2384"
           style="fill:#ff00ff;stroke-width:0;stroke-dasharray:none" /></g><g
         aria-label="E"
         id="text2308"
         style="font-weight:bold;font-size:7.05556px;line-height:1.25;-inkscape-font-specification:'sans-serif Bold';fill:#00d400;fill-opacity:1;stroke-width:0;stroke-dasharray:none"
         transform="matrix(0.81369849,0,0,0.81369849,80.42573,32.192314)"><path
           d="m 25.482687,113.69795 h -3.71037 v -5.12975 h 3.71037 v 0.99219 h -2.394343 v 0.88539 h 2.222088 v 0.99219 h -2.222088 v 1.26779 h 2.394343 z"
           id="path2381"
           style="fill:#00d400;fill-opacity:1;stroke-width:0;stroke-dasharray:none" /></g><g
         aria-label="S"
         id="text2312"
         style="font-weight:bold;font-size:7.05556px;line-height:1.25;-inkscape-font-specification:'sans-serif Bold';fill:#ff0000;stroke-width:0;stroke-dasharray:none"
         transform="matrix(0.6429049,0.34648754,-0.34648754,0.6429049,128.72292,44.042345)"><path
           d="m 34.325971,117.99862 q 0,0.75792 -0.644233,1.23334 -0.640788,0.47198 -1.74322,0.47198 -0.637343,0 -1.112766,-0.11024 -0.471979,-0.11369 -0.88539,-0.28594 v -1.2299 h 0.144694 q 0.409966,0.32728 0.916396,0.50298 0.509874,0.1757 0.978408,0.1757 0.120578,0 0.316949,-0.0207 0.19637,-0.0207 0.320394,-0.0689 0.151584,-0.062 0.248047,-0.15503 0.09991,-0.093 0.09991,-0.27561 0,-0.16881 -0.144694,-0.28939 -0.141249,-0.12402 -0.416856,-0.18948 -0.289389,-0.0689 -0.613228,-0.12747 -0.320394,-0.062 -0.602892,-0.15503 -0.647678,-0.21015 -0.933621,-0.56844 -0.282498,-0.36173 -0.282498,-0.89572 0,-0.71658 0.640788,-1.16789 0.644233,-0.45475 1.653647,-0.45475 0.506429,0 0.999078,0.0999 0.496094,0.0965 0.857829,0.24461 v 1.18166 h -0.141249 q -0.310058,-0.24804 -0.761366,-0.41341 -0.447863,-0.16881 -0.916396,-0.16881 -0.165365,0 -0.33073,0.0241 -0.161919,0.0207 -0.313504,0.0827 -0.134358,0.0517 -0.230821,0.15847 -0.09646,0.10336 -0.09646,0.23772 0,0.20326 0.15503,0.3135 0.155029,0.1068 0.585666,0.19637 0.282498,0.0586 0.540881,0.11369 0.261827,0.0551 0.56155,0.15158 0.589112,0.19293 0.868165,0.5271 0.282498,0.33073 0.282498,0.86128 z"
           id="path2378"
           style="fill:#ff0000;stroke-width:0;stroke-dasharray:none" /></g><g
         aria-label="F"
         id="text2316"
         style="font-weight:bold;font-size:7.05556px;line-height:1.25;-inkscape-font-specification:'sans-serif Bold';fill:#ffcc00;stroke-width:0;stroke-dasharray:none"><path
           d="m 98.801291,140.78946 h -3.788759 v 1.53211 h 3.512207 v 1.59295 h -3.512207 v 3.51773 h -2.112857 v -8.23571 h 5.901616 z"
           id="path2375"
           style="fill:#ffcc00;stroke-width:0;stroke-dasharray:none" /></g><circle
         style="fill:url(#radialGradient2873);fill-opacity:1;stroke:#ffffff;stroke-width:0;stroke-linecap:round;stroke-linejoin:round;stroke-dasharray:none;stroke-opacity:1"
         id="circle2869"
         cx="69.837929"
         cy="142.31039"
         r="10.550659" /><circle
         style="fill:#ffffff;fill-opacity:1;stroke-width:0;stroke-linecap:round;stroke-linejoin:round;stroke-dasharray:none"
         id="circle2871"
         cx="69.658653"
         cy="140.05473"
         r="6.9564781" /><g
         aria-label="E"
         id="g2877"
         style="font-weight:bold;font-size:7.05556px;line-height:1.25;-inkscape-font-specification:'sans-serif Bold';fill:#ff00ff;fill-opacity:1;stroke-width:0;stroke-dasharray:none"
         transform="matrix(1.3456562,-0.74096877,0.74096877,1.3456562,-44.115326,7.9031583)"><path
           d="m 25.482687,113.69795 h -3.71037 v -5.12975 h 3.71037 v 0.99219 h -2.394343 v 0.88539 h 2.222088 v 0.99219 h -2.222088 v 1.26779 h 2.394343 z"
           id="path2875"
           style="fill:#ff00ff;fill-opacity:1;stroke-width:0;stroke-dasharray:none" /></g><circle
         style="fill:url(#radialGradient2883);fill-opacity:1;stroke:#ffffff;stroke-width:0;stroke-linecap:round;stroke-linejoin:round;stroke-dasharray:none;stroke-opacity:1"
         id="circle2879"
         cx="81.783936"
         cy="150.91151"
         r="9.1321287" /><circle
         style="fill:#ffffff;fill-opacity:1;stroke-width:0;stroke-linecap:round;stroke-linejoin:round;stroke-dasharray:none"
         id="circle2881"
         cx="82.918716"
         cy="152.35912"
         r="5.6424179" /><g
         aria-label="N"
         id="text2324"
         style="font-weight:bold;font-size:7.05556px;line-height:1.25;-inkscape-font-specification:'sans-serif Bold';fill:#5599ff;fill-opacity:1;stroke-width:0;stroke-dasharray:none"
         transform="matrix(0.92693295,0.60107261,-0.60107261,0.92693295,113.06775,-0.64727223)"><path
           d="M 55.157118,133.97099 H 53.882432 L 51.70513,130.4501 v 3.52089 h -1.212675 v -5.12975 h 1.5813 l 1.870688,2.93867 v -2.93867 h 1.212675 z"
           id="path2369"
           style="fill:#5599ff;fill-opacity:1;stroke-width:0;stroke-dasharray:none" /></g><circle
         style="fill:url(#radialGradient4835);fill-opacity:1;stroke:#ffffff;stroke-width:0;stroke-linecap:round;stroke-linejoin:round;stroke-dasharray:none;stroke-opacity:1"
         id="circle4833"
         cx="108.86571"
         cy="152.79327"
         r="8.4280453" /><circle
         style="fill:#ffffff;fill-opacity:1;stroke:none;stroke-width:0;stroke-linecap:round;stroke-linejoin:round;stroke-dasharray:none;stroke-opacity:1"
         id="circle4837"
         cx="107.10279"
         cy="153.76097"
         r="4.9320483" /><g
         aria-label="A"
         id="text2320"
         style="font-weight:bold;font-size:7.05556px;line-height:1.25;-inkscape-font-specification:'sans-serif Bold';fill:#00d400;fill-opacity:1;stroke-width:0;stroke-dasharray:none"
         transform="matrix(1.0851975,-0.47422875,0.47422875,1.0851975,13.157954,75.672339)"><path
           d="M 48.644169,94.438568 H 47.276465 L 46.92162,93.401594 h -1.901694 l -0.354845,1.036974 h -1.333253 l 1.894804,-5.12975 h 1.522733 z M 46.601226,92.461082 45.970773,90.6214 45.34032,92.461082 Z"
           id="path2372"
           style="fill:#00d400;fill-opacity:1;stroke-width:0;stroke-dasharray:none" /></g><g
         aria-label="N"
         id="g6503"
         style="font-weight:bold;font-size:7.05556px;line-height:1.25;-inkscape-font-specification:'sans-serif Bold';fill:#ff00ff;fill-opacity:1;stroke-width:0;stroke-dasharray:none"
         transform="matrix(1.3856629,-0.59027853,0.59027853,1.3856629,-33.19144,-9.9403306)"><path
           d="M 55.157118,133.97099 H 53.882432 L 51.70513,130.4501 v 3.52089 h -1.212675 v -5.12975 h 1.5813 l 1.870688,2.93867 v -2.93867 h 1.212675 z"
           id="path6501"
           style="fill:#ff00ff;fill-opacity:1;stroke-width:0;stroke-dasharray:none" /></g><circle
         style="fill:url(#radialGradient7617);fill-opacity:1;stroke:#ffffff;stroke-width:0;stroke-linecap:round;stroke-linejoin:round;stroke-dasharray:none;stroke-opacity:1"
         id="circle7609"
         cx="131.08961"
         cy="152.45602"
         r="11.319112" /><circle
         style="fill:#ffffff;fill-opacity:1;stroke-width:0;stroke-linecap:round;stroke-linejoin:round;stroke-dasharray:none"
         id="circle7611"
         cx="129.18324"
         cy="154.54832"
         r="6.7576785" /><g
         aria-label="T"
         id="g7615"
         style="font-weight:bold;font-size:7.05556px;line-height:1.25;-inkscape-font-specification:'sans-serif Bold';fill:#ffcc00;fill-opacity:1;stroke-width:0;stroke-dasharray:none"
         transform="matrix(1.37901,0.79709986,-0.79709986,1.37901,178.29896,-10.262231)"><path
           d="m 26.799507,103.9853 h -1.601971 v 4.13756 h -1.322917 v -4.13756 h -1.601971 v -0.99219 h 4.526859 z"
           id="path7613"
           style="fill:#ffcc00;fill-opacity:1;stroke-width:0;stroke-dasharray:none" /></g><circle
         style="fill:url(#radialGradient8382);fill-opacity:1;stroke:#ffffff;stroke-width:0;stroke-linecap:round;stroke-linejoin:round;stroke-dasharray:none;stroke-opacity:1"
         id="circle8378"
         cx="145.21721"
         cy="145.53583"
         r="9.1321287" /><circle
         style="fill:#ffffff;fill-opacity:1;stroke-width:0;stroke-linecap:round;stroke-linejoin:round;stroke-dasharray:none"
         id="circle8380"
         cx="146.82983"
         cy="144.23586"
         r="5.6424179" /><g
         aria-label="S"
         id="g8386"
         style="font-weight:bold;font-size:7.05556px;line-height:1.25;-inkscape-font-specification:'sans-serif Bold';fill:#5599ff;fill-opacity:1;stroke-width:0;stroke-dasharray:none"
         transform="matrix(0.85788777,-0.82906571,0.82906571,0.85788777,22.408027,70.194805)"><path
           d="m 34.325971,117.99862 q 0,0.75792 -0.644233,1.23334 -0.640788,0.47198 -1.74322,0.47198 -0.637343,0 -1.112766,-0.11024 -0.471979,-0.11369 -0.88539,-0.28594 v -1.2299 h 0.144694 q 0.409966,0.32728 0.916396,0.50298 0.509874,0.1757 0.978408,0.1757 0.120578,0 0.316949,-0.0207 0.19637,-0.0207 0.320394,-0.0689 0.151584,-0.062 0.248047,-0.15503 0.09991,-0.093 0.09991,-0.27561 0,-0.16881 -0.144694,-0.28939 -0.141249,-0.12402 -0.416856,-0.18948 -0.289389,-0.0689 -0.613228,-0.12747 -0.320394,-0.062 -0.602892,-0.15503 -0.647678,-0.21015 -0.933621,-0.56844 -0.282498,-0.36173 -0.282498,-0.89572 0,-0.71658 0.640788,-1.16789 0.644233,-0.45475 1.653647,-0.45475 0.506429,0 0.999078,0.0999 0.496094,0.0965 0.857829,0.24461 v 1.18166 h -0.141249 q -0.310058,-0.24804 -0.761366,-0.41341 -0.447863,-0.16881 -0.916396,-0.16881 -0.165365,0 -0.33073,0.0241 -0.161919,0.0207 -0.313504,0.0827 -0.134358,0.0517 -0.230821,0.15847 -0.09646,0.10336 -0.09646,0.23772 0,0.20326 0.15503,0.3135 0.155029,0.1068 0.585666,0.19637 0.282498,0.0586 0.540881,0.11369 0.261827,0.0551 0.56155,0.15158 0.589112,0.19293 0.868165,0.5271 0.282498,0.33073 0.282498,0.86128 z"
           id="path8384"
           style="fill:#5599ff;fill-opacity:1;stroke-width:0;stroke-dasharray:none" /></g><path
         sodipodi:type="star"
         style="fill:#ffd42a;fill-opacity:1;stroke:#ffffff;stroke-width:0;stroke-linecap:round;stroke-linejoin:round;stroke-dasharray:none;stroke-opacity:1"
         id="path9009"
         inkscape:flatsided="false"
         sodipodi:sides="5"
         sodipodi:cx="53.385662"
         sodipodi:cy="116.40103"
         sodipodi:r1="10.686164"
         sodipodi:r2="4.3448043"
         sodipodi:arg1="0.78539816"
         sodipodi:arg2="1.3772121"
         inkscape:rounded="0.027365551"
         inkscape:randomized="0"
         d="m 60.941921,123.95729 c -0.139429,0.15 -6.518143,-3.32465 -6.720417,-3.29261 -0.209344,0.0332 -5.49502,5.34706 -5.687259,5.25779 -0.185745,-0.0863 1.147711,-7.22649 1.054737,-7.40897 -0.09623,-0.18885 -6.783413,-3.57374 -6.757919,-3.78415 0.02463,-0.20331 7.227467,-1.14157 7.372279,-1.28639 0.149874,-0.14987 1.302641,-7.55575 1.510636,-7.59653 0.200969,-0.0394 3.31911,6.52097 3.501583,6.61394 0.188852,0.0962 7.588489,-1.09597 7.691543,-0.91076 0.09957,0.17896 -5.176145,5.17175 -5.208183,5.37403 -0.03316,0.20934 3.387304,6.87841 3.243,7.03365 z"
         inkscape:transform-center-x="0.69895913"
         inkscape:transform-center-y="0.16353536"
         transform="matrix(0.81988086,-0.18015698,0.18015698,0.81988086,0.31486304,70.070266)" /><path
         sodipodi:type="star"
         style="fill:#ffd42a;fill-opacity:1;stroke:#ffffff;stroke-width:0;stroke-linecap:round;stroke-linejoin:round;stroke-dasharray:none;stroke-opacity:1"
         id="path9011"
         inkscape:flatsided="false"
         sodipodi:sides="5"
         sodipodi:cx="53.385662"
         sodipodi:cy="116.40103"
         sodipodi:r1="10.686164"
         sodipodi:r2="4.3448043"
         sodipodi:arg1="0.78539816"
         sodipodi:arg2="1.3772121"
         inkscape:rounded="0.027365551"
         inkscape:randomized="0"
         d="m 60.941921,123.95729 c -0.139429,0.15 -6.518143,-3.32465 -6.720417,-3.29261 -0.209344,0.0332 -5.49502,5.34706 -5.687259,5.25779 -0.185745,-0.0863 1.147711,-7.22649 1.054737,-7.40897 -0.09623,-0.18885 -6.783413,-3.57374 -6.757919,-3.78415 0.02463,-0.20331 7.227467,-1.14157 7.372279,-1.28639 0.149874,-0.14987 1.302641,-7.55575 1.510636,-7.59653 0.200969,-0.0394 3.31911,6.52097 3.501583,6.61394 0.188852,0.0962 7.588489,-1.09597 7.691543,-0.91076 0.09957,0.17896 -5.176145,5.17175 -5.208183,5.37403 -0.03316,0.20934 3.387304,6.87841 3.243,7.03365 z"
         inkscape:transform-center-x="0.20286099"
         inkscape:transform-center-y="0.38498196"
         transform="matrix(0.53275026,-0.20260009,0.20260009,0.53275026,21.632421,73.272868)" /></g></g></svg>
